<?xml version="1.0" standalone="no"?>
<!DOCTYPE svg PUBLIC "-//W3C//DTD SVG 20010904//EN"
 "http://www.w3.org/TR/2001/REC-SVG-20010904/DTD/svg10.dtd">
<svg version="1.0" xmlns="http://www.w3.org/2000/svg"
 width="1024.000000pt" height="1024.000000pt" viewBox="0 0 1024.000000 1024.000000"
 preserveAspectRatio="xMidYMid meet">

<g transform="translate(0.000000,1024.000000) scale(0.100000,-0.100000)"
fill="#000000" stroke="none">
<path d="M4980 9466 c-278 -83 -687 -202 -1255 -366 -436 -126 -501 -161 -650
-353 -94 -121 -1029 -1353 -1063 -1402 -24 -33 -27 -47 -27 -120 0 -74 3 -85
28 -118 15 -20 181 -161 368 -314 188 -153 423 -345 523 -426 195 -160 272
-207 394 -238 73 -18 129 -19 1822 -19 1693 0 1749 1 1822 19 128 33 197 76
443 278 127 103 362 295 523 426 160 131 304 254 319 274 22 29 28 49 31 102
3 41 -1 78 -10 98 -11 26 -607 819 -1048 1394 -117 152 -179 210 -283 265 -71
37 -118 51 -1092 334 -231 67 -454 133 -495 147 -92 31 -276 41 -350 19z m309
-186 c57 -29 183 -60 243 -60 l49 0 -3 -217 -3 -218 -31 -65 c-54 -115 -176
-227 -327 -301 -78 -39 -79 -38 -205 33 -107 61 -220 174 -263 263 l-34 70 -3
218 -3 217 49 0 c66 0 192 33 254 67 29 16 70 47 92 69 l41 42 51 -48 c28 -26
70 -58 93 -70z"/>
<path d="M3050 5838 c-69 -4 -203 -17 -299 -28 -217 -25 -271 -45 -302 -115
-21 -47 -20 -83 3 -170 23 -91 62 -143 152 -209 55 -41 89 -123 116 -276 41
-237 68 -355 99 -436 92 -238 306 -382 666 -447 105 -19 156 -21 410 -21 283
0 292 0 387 26 230 63 378 178 468 363 21 44 62 157 91 250 114 377 166 455
304 455 138 0 191 -80 305 -457 73 -239 113 -319 214 -419 95 -96 195 -151
345 -192 93 -26 104 -26 386 -26 306 0 397 9 565 55 228 63 395 181 479 338
48 90 80 202 116 411 47 269 56 294 119 355 29 28 64 58 78 67 36 24 75 109
94 202 15 72 15 81 -1 122 -19 51 -69 85 -150 103 -68 15 -294 38 -507 52
-244 16 -874 7 -1026 -15 -345 -50 -554 -111 -801 -234 l-114 -57 -101 0 -101
0 -150 72 c-280 133 -546 201 -910 233 -142 12 -756 11 -935 -2z m695 -148
c569 -32 806 -84 925 -202 152 -151 122 -403 -84 -712 -265 -399 -581 -542
-1058 -480 -163 21 -316 85 -409 172 -82 76 -129 150 -168 266 -49 149 -63
268 -59 496 4 174 7 202 27 255 45 116 144 186 291 205 83 11 344 11 535 0z
m3426 -19 c80 -25 149 -83 184 -151 39 -77 48 -161 42 -384 -6 -210 -18 -292
-62 -419 -97 -282 -332 -420 -735 -432 -249 -8 -426 42 -606 170 -154 110
-334 349 -414 550 -87 214 -73 369 41 483 93 94 262 145 589 177 265 26 430
33 670 30 197 -2 233 -5 291 -24z m-4450 -20 c64 -65 20 -171 -71 -171 -33 0
-48 6 -71 29 -64 65 -20 171 71 171 33 0 48 -6 71 -29z m4990 0 c23 -23 29
-38 29 -71 0 -33 -6 -48 -29 -71 -23 -23 -38 -29 -71 -29 -33 0 -48 6 -71 29
-23 23 -29 38 -29 71 0 33 6 48 29 71 23 23 38 29 71 29 33 0 48 -6 71 -29z"/>
<path d="M4543 3909 c-89 -8 -157 -30 -251 -80 -106 -56 -181 -116 -318 -254
-161 -163 -244 -223 -385 -279 -165 -64 -391 -86 -596 -56 -88 13 -279 61
-337 85 -21 9 -40 14 -43 12 -2 -3 20 -33 48 -68 242 -290 545 -481 848 -535
115 -20 320 -20 451 1 268 43 622 206 895 413 33 25 106 85 163 134 l102 89
103 -89 c337 -293 727 -494 1057 -547 131 -21 337 -21 451 -1 303 54 606 245
848 535 28 35 50 65 48 68 -3 2 -22 -3 -43 -12 -22 -9 -88 -29 -149 -45 -291
-76 -563 -71 -784 16 -141 56 -224 116 -385 279 -141 142 -230 211 -341 266
-107 52 -181 69 -295 70 -143 0 -269 -31 -432 -108 l-78 -36 -77 36 c-187 88
-340 120 -500 106z"/>
<path d="M2486 1999 c-62 -15 -152 -68 -199 -118 -67 -71 -90 -143 -85 -261 3
-85 7 -102 38 -158 101 -190 346 -257 528 -144 63 39 67 81 15 142 -30 37 -57
38 -114 5 -129 -73 -299 23 -299 170 0 148 167 242 302 170 26 -14 56 -25 67
-25 31 0 81 65 81 105 0 30 -6 38 -42 62 -87 54 -197 74 -292 52z"/>
<path d="M4346 1999 c-62 -15 -152 -68 -199 -118 -67 -71 -90 -143 -85 -261 3
-85 7 -102 38 -158 101 -190 346 -257 528 -144 63 39 67 81 15 142 -30 37 -57
38 -114 5 -129 -73 -299 23 -299 170 0 148 167 242 302 170 26 -14 56 -25 67
-25 31 0 81 65 81 105 0 30 -6 38 -42 62 -87 54 -197 74 -292 52z"/>
<path d="M7765 1973 c-39 -10 -45 -23 -45 -104 l0 -79 -33 0 c-46 0 -57 -15
-57 -81 0 -66 16 -89 61 -89 l29 0 0 -108 c0 -92 3 -114 23 -152 28 -56 76
-81 166 -88 77 -5 96 6 107 62 10 55 -13 89 -65 98 -25 4 -48 13 -53 20 -4 7
-8 48 -8 91 l0 77 53 0 c75 0 97 18 97 81 0 79 -9 89 -85 89 l-65 0 0 73 c0
39 -4 77 -8 84 -16 25 -71 37 -117 26z"/>
<path d="M3085 1801 c-124 -32 -205 -136 -205 -263 0 -77 15 -121 60 -178 73
-92 229 -124 336 -68 96 50 143 131 144 244 0 114 -49 192 -153 246 -44 22
-134 32 -182 19z m132 -195 c23 -20 28 -32 28 -71 0 -40 -4 -50 -30 -71 -40
-32 -94 -32 -132 0 -23 20 -28 32 -28 71 0 60 35 95 95 95 27 0 48 -8 67 -24z"/>
<path d="M4945 1801 c-124 -32 -205 -136 -205 -263 0 -77 15 -121 60 -178 73
-92 229 -124 336 -68 96 50 143 131 144 244 0 114 -49 192 -153 246 -44 22
-134 32 -182 19z m132 -195 c23 -20 28 -32 28 -71 0 -40 -4 -50 -30 -71 -40
-32 -94 -32 -132 0 -23 20 -28 32 -28 71 0 60 35 95 95 95 27 0 48 -8 67 -24z"/>
<path d="M6757 1799 c-130 -31 -206 -126 -207 -260 0 -36 7 -87 17 -114 21
-63 85 -127 148 -148 56 -19 190 -23 248 -6 79 22 100 82 49 140 l-28 32 -53
-18 c-69 -23 -142 -16 -176 15 -13 13 -22 27 -19 31 3 5 65 9 137 9 149 0 168
6 187 66 24 72 -14 174 -83 221 -56 38 -142 50 -220 32z m117 -162 c11 -8 17
-23 14 -38 -3 -23 -7 -24 -80 -27 -79 -3 -87 1 -65 28 36 46 96 63 131 37z"/>
<path d="M3530 1794 c-39 -16 -40 -28 -40 -374 0 -390 -3 -375 85 -375 80 0
85 10 85 157 0 65 2 118 5 118 3 0 17 -7 31 -16 40 -27 123 -22 178 10 82 48
130 131 130 226 0 95 -48 178 -130 226 -59 35 -141 37 -184 6 -28 -21 -28 -21
-42 -2 -13 21 -88 35 -118 24z m275 -191 c37 -37 39 -78 6 -117 -35 -40 -96
-39 -127 2 -21 27 -17 83 8 109 26 28 88 32 113 6z"/>
<path d="M5395 1793 c-42 -10 -45 -26 -45 -258 0 -255 0 -255 76 -262 39 -4
54 -1 73 14 23 19 25 27 29 157 4 131 6 137 30 156 35 28 87 26 117 -5 24 -23
25 -29 25 -153 0 -152 5 -163 76 -169 39 -4 54 -1 74 15 25 20 25 23 25 169
-1 128 -3 154 -21 193 -58 127 -194 182 -291 118 -39 -26 -41 -26 -46 -8 -8
32 -64 47 -122 33z"/>
<path d="M6005 1793 c-42 -10 -45 -26 -45 -258 0 -255 0 -255 76 -262 39 -4
54 -1 73 14 23 19 25 27 29 157 4 131 6 137 30 156 35 28 87 26 117 -5 24 -23
25 -29 25 -153 0 -152 5 -163 76 -169 39 -4 54 -1 74 15 25 20 25 23 25 169
-1 128 -3 154 -21 193 -58 127 -194 182 -291 118 -39 -26 -41 -26 -46 -8 -8
32 -64 47 -122 33z"/>
<path d="M7285 1776 c-104 -48 -154 -126 -155 -239 0 -115 43 -187 141 -236
102 -51 222 -40 292 26 36 36 34 65 -9 113 -41 46 -54 48 -109 20 -71 -36
-135 0 -135 76 0 34 5 47 26 63 31 25 90 27 118 6 42 -32 92 -11 125 52 19 37
12 60 -25 91 -69 57 -182 69 -269 28z"/>
<path d="M5173 1043 c-18 -6 -18 -204 -1 -221 17 -17 58 -15 65 4 4 10 -1 22
-10 29 -14 10 -17 30 -17 98 0 85 -7 100 -37 90z"/>
<path d="M4532 1018 c2 -15 10 -23 23 -23 13 0 21 8 23 23 3 18 -1 22 -23 22
-22 0 -26 -4 -23 -22z"/>
<path d="M5370 1027 c-61 -31 -45 -103 29 -126 23 -6 41 -16 41 -22 0 -19 -32
-22 -60 -6 -45 27 -71 -17 -28 -47 52 -36 138 -3 138 53 0 34 -25 59 -68 67
-18 4 -32 12 -32 20 0 20 18 26 42 13 18 -10 24 -8 35 7 11 14 11 20 1 30 -21
19 -71 25 -98 11z"/>
<path d="M6172 1018 c2 -15 10 -23 23 -23 13 0 21 8 23 23 3 18 -1 22 -23 22
-22 0 -26 -4 -23 -22z"/>
<path d="M7362 928 l3 -113 54 -2 c44 -1 57 2 77 22 32 32 32 78 -2 112 -20
20 -32 24 -55 19 -28 -5 -29 -4 -29 34 0 36 -2 40 -25 40 l-26 0 3 -112z m98
-18 c11 -7 12 -14 4 -27 -15 -24 -33 -28 -40 -9 -7 18 1 46 13 46 4 0 15 -5
23 -10z"/>
<path d="M3992 923 c3 -100 4 -108 23 -108 17 0 21 8 25 59 l5 59 48 -62 c70
-91 81 -84 85 52 l3 107 -25 0 c-24 0 -25 -3 -28 -62 l-3 -63 -44 63 c-33 46
-51 62 -68 62 -24 0 -24 -1 -21 -107z"/>
<path d="M6644 1017 c-3 -8 -3 -56 -2 -108 l3 -94 34 -3 c82 -8 142 27 155 89
7 38 -14 91 -45 113 -30 20 -137 23 -145 3z m120 -56 c25 -27 17 -72 -15 -90
-43 -24 -59 -10 -59 54 0 54 1 55 28 55 16 0 37 -9 46 -19z"/>
<path d="M4417 1013 c-4 -3 -7 -15 -7 -25 0 -10 -4 -18 -10 -18 -5 0 -10 -11
-10 -25 0 -14 4 -25 9 -25 4 0 11 -19 14 -42 6 -46 27 -68 64 -68 31 0 33 45
2 53 -29 8 -22 51 9 55 31 5 27 46 -5 50 -17 3 -23 10 -23 28 0 17 -6 24 -18
24 -10 0 -22 -3 -25 -7z"/>
<path d="M6270 996 c0 -13 -7 -26 -15 -30 -8 -3 -15 -15 -15 -26 0 -11 7 -20
15 -20 11 0 15 -11 15 -39 0 -47 22 -73 59 -69 33 4 42 37 12 45 -31 8 -30 60
2 65 14 2 22 10 22 23 0 13 -8 21 -22 23 -17 3 -23 10 -23 28 0 19 -5 24 -25
24 -20 0 -25 -5 -25 -24z"/>
<path d="M7067 1013 c-4 -3 -7 -15 -7 -25 0 -10 -4 -18 -10 -18 -5 0 -10 -11
-10 -25 0 -14 4 -25 9 -25 4 0 11 -19 14 -42 6 -46 27 -68 64 -68 31 0 33 45
2 53 -29 8 -22 51 9 55 31 5 27 46 -5 50 -17 3 -23 10 -23 28 0 17 -6 24 -18
24 -10 0 -22 -3 -25 -7z"/>
<path d="M4239 957 c-43 -32 -46 -81 -7 -124 16 -17 31 -21 74 -21 l54 1 0 77
0 77 -53 1 c-28 0 -59 -5 -68 -11z m68 -53 c7 -19 -20 -49 -36 -40 -12 8 -15
39 -4 49 12 12 33 7 40 -9z"/>
<path d="M4532 893 c3 -70 5 -78 23 -78 18 0 20 7 20 75 0 71 -1 75 -23 78
-22 3 -23 2 -20 -75z"/>
<path d="M4642 963 c-21 -8 -44 -62 -36 -86 20 -67 93 -89 139 -42 66 65 -13
164 -103 128z m72 -59 c7 -19 -10 -44 -31 -44 -17 0 -27 24 -19 45 7 20 42 19
50 -1z"/>
<path d="M4792 892 c3 -69 5 -77 23 -77 17 0 20 8 23 48 5 84 62 70 62 -16 0
-34 2 -38 23 -35 20 3 22 8 22 60 -1 76 -16 91 -95 94 l-61 3 3 -77z"/>
<path d="M4994 945 c-32 -32 -32 -78 0 -110 20 -20 33 -23 77 -22 l54 2 0 75
0 75 -54 2 c-44 1 -57 -2 -77 -22z m71 -56 c0 -28 -23 -32 -39 -6 -8 14 -8 20
4 27 22 14 35 6 35 -21z"/>
<path d="M5532 947 c-28 -30 -28 -76 -1 -111 19 -24 27 -27 73 -24 43 3 51 6
51 23 0 17 -6 20 -37 17 -20 -1 -39 2 -43 8 -4 6 9 10 34 10 49 0 69 26 50 63
-16 30 -28 37 -70 37 -24 0 -42 -7 -57 -23z m76 -35 c2 -7 -7 -12 -23 -12 -24
0 -26 2 -15 15 14 17 31 16 38 -3z"/>
<path d="M5719 957 c-66 -51 -30 -147 55 -147 28 0 51 24 42 45 -3 10 -16 14
-38 13 -29 -3 -33 0 -33 22 0 22 4 25 33 22 37 -2 52 18 32 43 -15 18 -69 19
-91 2z"/>
<path d="M5850 911 c0 -77 24 -100 103 -98 l52 2 0 75 c0 70 -1 75 -22 78 -21
3 -23 -1 -23 -35 0 -85 -57 -98 -62 -15 -3 40 -6 47 -25 50 -22 3 -23 0 -23
-57z"/>
<path d="M6034 955 c-3 -7 -4 -41 -2 -76 3 -58 5 -64 26 -67 20 -3 22 1 22 36
0 58 8 72 41 72 24 0 29 4 29 24 0 23 -3 24 -56 24 -34 0 -57 -5 -60 -13z"/>
<path d="M6174 956 c-3 -7 -4 -42 -2 -77 3 -58 5 -64 26 -67 21 -3 22 -1 22
77 0 75 -2 81 -20 81 -11 0 -23 -6 -26 -14z"/>
<path d="M6384 955 c-3 -8 8 -39 25 -69 30 -52 31 -56 17 -89 -14 -36 -7 -57
20 -57 14 0 107 206 99 220 -14 23 -43 9 -60 -30 l-18 -40 -24 40 c-25 41 -49
52 -59 25z"/>
<path d="M6889 957 c-43 -32 -46 -81 -7 -124 16 -17 31 -21 74 -21 l54 1 0 77
0 77 -53 1 c-28 0 -59 -5 -68 -11z m68 -53 c7 -19 -20 -49 -36 -40 -12 8 -15
39 -4 49 12 12 33 7 40 -9z"/>
<path d="M7209 957 c-43 -32 -46 -81 -7 -124 16 -17 31 -21 74 -21 l54 1 0 77
0 77 -53 1 c-28 0 -59 -5 -68 -11z m68 -53 c7 -19 -20 -49 -36 -40 -12 8 -15
39 -4 49 12 12 33 7 40 -9z"/>
<path d="M7564 945 c-32 -32 -32 -78 0 -110 20 -20 33 -23 77 -22 l54 2 0 75
0 75 -54 2 c-44 1 -57 -2 -77 -22z m71 -56 c0 -28 -23 -32 -39 -6 -8 14 -8 20
4 27 22 14 35 6 35 -21z"/>
<path d="M7736 955 c-9 -9 -16 -22 -16 -28 0 -22 31 -57 50 -57 10 0 22 -5 26
-11 5 -9 -3 -10 -30 -5 -29 6 -38 4 -43 -10 -8 -21 13 -34 58 -34 48 0 72 19
67 55 -2 24 -10 32 -35 40 -47 15 -53 27 -13 23 29 -2 35 0 35 17 0 16 -8 21
-41 23 -28 2 -47 -2 -58 -13z"/>
<path d="M7892 947 c-28 -30 -28 -76 -1 -111 19 -24 27 -27 73 -24 43 3 51 6
51 23 0 17 -6 20 -37 17 -20 -1 -39 2 -43 8 -4 6 9 10 34 10 49 0 69 26 50 63
-16 30 -28 37 -70 37 -24 0 -42 -7 -57 -23z m76 -35 c2 -7 -7 -12 -23 -12 -24
0 -26 2 -15 15 14 17 31 16 38 -3z"/>
</g>
</svg>
