<svg id="svg" version="1.1" xmlns="http://www.w3.org/2000/svg" style="display: block;" viewBox="0 0 453 390"><path d="M0,0 L453,0 L453,390 L0,390 Z " transform="translate(0,0)" style="fill: #FCFDFE;"/><path d="M0,0 L242,0 L242,1 L247,1 L247,2 L251,2 L251,3 L255,3 L255,4 L258,4 L258,5 L259,5 L259,6 L262,6 L262,7 L266,7 L266,8 L267,8 L267,9 L269,9 L269,10 L271,10 L271,11 L273,11 L273,12 L275,12 L275,14 L276,14 L276,15 L279,15 L279,16 L281,16 L281,17 L282,17 L282,18 L283,18 L283,19 L284,19 L284,20 L285,20 L285,21 L286,21 L286,22 L287,22 L287,23 L288,23 L288,24 L289,24 L289,25 L290,25 L290,26 L291,26 L291,27 L292,27 L292,28 L293,28 L293,29 L294,29 L294,30 L295,30 L295,31 L296,31 L296,32 L297,32 L297,33 L298,33 L298,34 L299,34 L299,35 L300,35 L300,36 L301,36 L301,38 L302,38 L302,39 L303,39 L303,40 L304,40 L304,41 L305,41 L305,43 L306,43 L306,44 L307,44 L307,46 L308,46 L308,48 L309,48 L309,49 L310,49 L310,53 L311,53 L311,55 L312,55 L312,57 L313,57 L313,58 L314,58 L314,60 L315,60 L315,61 L316,61 L316,63 L317,63 L317,66 L318,66 L318,70 L319,70 L319,73 L320,73 L320,76 L321,76 L321,79 L322,79 L322,82 L323,82 L323,91 L324,91 L324,97 L326,97 L326,122 L324,122 L324,127 L323,127 L323,128 L322,128 L322,136 L321,136 L321,142 L320,142 L320,145 L319,145 L319,148 L318,148 L318,151 L317,151 L317,155 L316,155 L316,158 L315,158 L315,160 L314,160 L314,163 L312,163 L312,165 L311,165 L311,167 L310,167 L310,169 L309,169 L309,171 L308,171 L308,172 L307,172 L307,176 L306,176 L306,177 L304,177 L304,178 L303,178 L303,180 L302,180 L302,182 L301,182 L301,183 L300,183 L300,184 L299,184 L299,185 L298,185 L298,187 L297,187 L297,188 L296,188 L296,189 L295,189 L295,190 L294,190 L294,191 L293,191 L293,192 L292,192 L292,193 L291,193 L291,194 L290,194 L290,195 L289,195 L289,196 L288,196 L288,197 L287,197 L287,198 L286,198 L286,199 L285,199 L285,200 L284,200 L284,201 L282,201 L282,202 L281,202 L281,203 L279,203 L279,204 L278,204 L278,205 L277,205 L277,206 L275,206 L275,207 L274,207 L274,208 L273,208 L273,209 L271,209 L271,210 L269,210 L269,211 L265,211 L265,212 L264,212 L264,213 L261,213 L261,214 L258,214 L258,215 L254,215 L254,216 L249,216 L249,218 L114,218 L114,217 L112,217 L112,216 L109,216 L109,215 L106,215 L106,214 L105,214 L105,213 L104,213 L104,212 L103,212 L103,210 L102,210 L102,209 L100,209 L100,208 L99,208 L99,207 L98,207 L98,204 L97,204 L97,200 L96,200 L96,189 L97,189 L97,185 L98,185 L98,183 L99,183 L99,182 L100,182 L100,181 L101,181 L101,180 L102,180 L102,179 L103,179 L103,178 L104,178 L104,176 L105,176 L105,175 L107,175 L107,174 L108,174 L108,173 L112,173 L112,172 L115,172 L115,171 L237,171 L237,170 L241,170 L241,169 L245,169 L245,168 L249,168 L249,167 L252,167 L252,166 L253,166 L253,165 L254,165 L254,163 L256,163 L256,162 L257,162 L257,161 L258,161 L258,160 L260,160 L260,159 L261,159 L261,158 L262,158 L262,157 L263,157 L263,156 L264,156 L264,155 L265,155 L265,154 L266,154 L266,153 L267,153 L267,151 L268,151 L268,150 L269,150 L269,148 L270,148 L270,147 L271,147 L271,145 L272,145 L272,143 L273,143 L273,141 L274,141 L274,140 L275,140 L275,137 L276,137 L276,133 L278,133 L278,129 L279,129 L279,123 L280,123 L280,96 L279,96 L279,95 L278,95 L278,90 L277,90 L277,85 L276,85 L276,81 L275,81 L275,79 L274,79 L274,76 L273,76 L273,74 L272,74 L272,72 L271,72 L271,71 L270,71 L270,69 L269,69 L269,68 L268,68 L268,67 L267,67 L267,66 L266,66 L266,65 L265,65 L265,64 L264,64 L264,63 L263,63 L263,62 L262,62 L262,61 L260,61 L260,60 L259,60 L259,59 L258,59 L258,58 L257,58 L257,57 L255,57 L255,56 L254,56 L254,55 L252,55 L252,54 L250,54 L250,53 L248,53 L248,52 L246,52 L246,51 L243,51 L243,50 L240,50 L240,49 L236,49 L236,48 L226,48 L226,47 L17,47 L17,48 L7,48 L7,49 L3,49 L3,50 L0,50 L0,51 L-3,51 L-3,52 L-6,52 L-6,53 L-7,53 L-7,54 L-9,54 L-9,55 L-11,55 L-11,56 L-13,56 L-13,57 L-14,57 L-14,58 L-16,58 L-16,59 L-17,59 L-17,61 L-19,61 L-19,62 L-21,62 L-21,64 L-22,64 L-22,65 L-23,65 L-23,67 L-25,67 L-25,69 L-26,69 L-26,70 L-27,70 L-27,72 L-28,72 L-28,73 L-29,73 L-29,75 L-30,75 L-30,79 L-31,79 L-31,82 L-33,82 L-33,85 L-34,85 L-34,93 L-35,93 L-35,99 L-36,99 L-36,121 L-35,121 L-35,126 L-34,126 L-34,130 L-33,130 L-33,136 L-32,136 L-32,140 L-31,140 L-31,141 L-30,141 L-30,143 L-29,143 L-29,144 L-28,144 L-28,146 L-27,146 L-27,147 L-26,147 L-26,149 L-25,149 L-25,151 L-24,151 L-24,152 L-23,152 L-23,153 L-22,153 L-22,154 L-21,154 L-21,155 L-20,155 L-20,156 L-19,156 L-19,157 L-18,157 L-18,158 L-17,158 L-17,159 L-16,159 L-16,160 L-15,160 L-15,161 L-14,161 L-14,162 L-12,162 L-12,163 L-11,163 L-11,164 L-9,164 L-9,166 L-7,166 L-7,167 L-4,167 L-4,168 L-2,168 L-2,169 L2,169 L2,170 L6,170 L6,171 L13,171 L13,172 L28,172 L28,173 L32,173 L32,174 L33,174 L33,176 L34,176 L34,177 L36,177 L36,178 L37,178 L37,179 L38,179 L38,180 L39,180 L39,181 L40,181 L40,182 L41,182 L41,185 L42,185 L42,187 L43,187 L43,188 L44,188 L44,200 L43,200 L43,201 L42,201 L42,203 L41,203 L41,207 L39,207 L39,209 L38,209 L38,210 L37,210 L37,211 L36,211 L36,212 L35,212 L35,213 L34,213 L34,214 L32,214 L32,215 L31,215 L31,216 L28,216 L28,217 L26,217 L26,218 L0,218 L0,217 L-9,217 L-9,216 L-12,216 L-12,215 L-15,215 L-15,214 L-17,214 L-17,213 L-19,213 L-19,212 L-20,212 L-20,211 L-24,211 L-24,209 L-27,209 L-27,208 L-28,208 L-28,207 L-31,207 L-31,206 L-33,206 L-33,205 L-35,205 L-35,204 L-36,204 L-36,203 L-38,203 L-38,202 L-39,202 L-39,201 L-40,201 L-40,200 L-41,200 L-41,199 L-42,199 L-42,198 L-43,198 L-43,197 L-45,197 L-45,196 L-46,196 L-46,195 L-47,195 L-47,194 L-48,194 L-48,193 L-49,193 L-49,192 L-50,192 L-50,191 L-51,191 L-51,189 L-52,189 L-52,188 L-53,188 L-53,187 L-54,187 L-54,186 L-55,186 L-55,185 L-56,185 L-56,183 L-57,183 L-57,182 L-58,182 L-58,181 L-59,181 L-59,180 L-60,180 L-60,179 L-61,179 L-61,178 L-62,178 L-62,174 L-63,174 L-63,173 L-64,173 L-64,172 L-65,172 L-65,170 L-66,170 L-66,169 L-67,169 L-67,168 L-68,168 L-68,166 L-69,166 L-69,162 L-70,162 L-70,160 L-71,160 L-71,158 L-72,158 L-72,154 L-73,154 L-73,152 L-74,152 L-74,150 L-75,150 L-75,147 L-76,147 L-76,144 L-77,144 L-77,141 L-78,141 L-78,135 L-79,135 L-79,130 L-81,130 L-81,125 L-82,125 L-82,118 L-83,118 L-83,100 L-81,100 L-81,93 L-80,93 L-80,88 L-79,88 L-79,81 L-78,81 L-78,77 L-77,77 L-77,74 L-76,74 L-76,69 L-75,69 L-75,66 L-74,66 L-74,64 L-72,64 L-72,61 L-71,61 L-71,59 L-70,59 L-70,56 L-69,56 L-69,53 L-68,53 L-68,51 L-67,51 L-67,49 L-66,49 L-66,47 L-65,47 L-65,46 L-64,46 L-64,45 L-63,45 L-63,43 L-62,43 L-62,42 L-61,42 L-61,40 L-60,40 L-60,39 L-59,39 L-59,37 L-58,37 L-58,36 L-57,36 L-57,35 L-56,35 L-56,33 L-55,33 L-55,32 L-54,32 L-54,31 L-53,31 L-53,30 L-52,30 L-52,29 L-51,29 L-51,28 L-50,28 L-50,27 L-49,27 L-49,26 L-48,26 L-48,25 L-47,25 L-47,24 L-46,24 L-46,22 L-44,22 L-44,21 L-43,21 L-43,20 L-42,20 L-42,19 L-41,19 L-41,18 L-39,18 L-39,17 L-38,17 L-38,16 L-37,16 L-37,15 L-36,15 L-36,14 L-34,14 L-34,13 L-32,13 L-32,12 L-31,12 L-31,11 L-29,11 L-29,10 L-28,10 L-28,9 L-26,9 L-26,8 L-22,8 L-22,6 L-18,6 L-18,5 L-15,5 L-15,4 L-13,4 L-13,3 L-9,3 L-9,2 L-6,2 L-6,1 L0,1 Z " transform="translate(99,18)" style="fill: #3486C6;"/><path d="M0,0 L82,0 L82,1 L84,1 L84,2 L85,2 L85,3 L86,3 L86,7 L85,7 L85,9 L84,9 L84,10 L1,10 L1,11 L0,11 L0,12 L-1,12 L-1,19 L0,19 L0,20 L1,20 L1,21 L77,21 L77,22 L80,22 L80,23 L82,23 L82,25 L84,25 L84,26 L85,26 L85,27 L86,27 L86,28 L87,28 L87,29 L88,29 L88,31 L89,31 L89,41 L88,41 L88,44 L87,44 L87,46 L86,46 L86,47 L85,47 L85,48 L84,48 L84,49 L83,49 L83,50 L81,50 L81,51 L79,51 L79,52 L78,52 L78,53 L-6,53 L-6,52 L-7,52 L-7,50 L-8,50 L-8,45 L-6,45 L-6,44 L-5,44 L-5,43 L77,43 L77,42 L78,42 L78,41 L79,41 L79,34 L77,34 L77,33 L76,33 L76,32 L1,32 L1,31 L-2,31 L-2,30 L-3,30 L-3,29 L-6,29 L-6,28 L-7,28 L-7,27 L-8,27 L-8,26 L-9,26 L-9,24 L-10,24 L-10,22 L-11,22 L-11,19 L-12,19 L-12,14 L-11,14 L-11,8 L-10,8 L-10,7 L-9,7 L-9,5 L-8,5 L-8,4 L-7,4 L-7,3 L-6,3 L-6,2 L-4,2 L-4,1 L0,1 Z " transform="translate(84,286)" style="fill: #3989C7;"/><path d="M0,0 L14,0 L14,1 L17,1 L17,2 L20,2 L20,4 L22,4 L22,5 L24,5 L24,6 L25,6 L25,7 L27,7 L27,8 L28,8 L28,9 L29,9 L29,10 L30,10 L30,11 L31,11 L31,12 L32,12 L32,13 L33,13 L33,14 L34,14 L34,17 L35,17 L35,19 L36,19 L36,21 L37,21 L37,25 L38,25 L38,36 L37,36 L37,39 L36,39 L36,42 L35,42 L35,44 L34,44 L34,45 L33,45 L33,46 L32,46 L32,48 L31,48 L31,49 L30,49 L30,50 L29,50 L29,51 L28,51 L28,53 L26,53 L26,54 L25,54 L25,55 L24,55 L24,56 L22,56 L22,57 L21,57 L21,58 L20,58 L20,59 L18,59 L18,60 L15,60 L15,61 L-2,61 L-2,60 L-4,60 L-4,59 L-6,59 L-6,58 L-7,58 L-7,57 L-9,57 L-9,56 L-11,56 L-11,55 L-12,55 L-12,54 L-13,54 L-13,53 L-14,53 L-14,52 L-15,52 L-15,51 L-16,51 L-16,49 L-17,49 L-17,48 L-18,48 L-18,47 L-19,47 L-19,46 L-20,46 L-20,44 L-21,44 L-21,41 L-22,41 L-22,38 L-23,38 L-23,34 L-24,34 L-24,27 L-23,27 L-23,22 L-22,22 L-22,18 L-21,18 L-21,16 L-20,16 L-20,14 L-19,14 L-19,13 L-18,13 L-18,12 L-17,12 L-17,11 L-16,11 L-16,10 L-15,10 L-15,9 L-14,9 L-14,8 L-13,8 L-13,7 L-12,7 L-12,6 L-11,6 L-11,5 L-10,5 L-10,4 L-9,4 L-9,3 L-7,3 L-7,2 L-4,2 L-4,1 L0,1 Z " transform="translate(162,117)" style="fill: #3687C7;"/><path d="M0,0 L80,0 L80,1 L82,1 L82,2 L83,2 L83,8 L82,8 L82,9 L81,9 L81,10 L2,10 L2,11 L0,11 L0,12 L-1,12 L-1,13 L-3,13 L-3,14 L-4,14 L-4,15 L-5,15 L-5,18 L-6,18 L-6,20 L-7,20 L-7,33 L-6,33 L-6,35 L-5,35 L-5,37 L-4,37 L-4,38 L-3,38 L-3,39 L-2,39 L-2,40 L-1,40 L-1,41 L1,41 L1,42 L4,42 L4,43 L81,43 L81,44 L83,44 L83,52 L82,52 L82,53 L-3,53 L-3,52 L-5,52 L-5,51 L-6,51 L-6,50 L-7,50 L-7,49 L-8,49 L-8,48 L-9,48 L-9,47 L-10,47 L-10,46 L-12,46 L-12,45 L-13,45 L-13,42 L-14,42 L-14,40 L-15,40 L-15,37 L-16,37 L-16,34 L-17,34 L-17,18 L-16,18 L-16,16 L-15,16 L-15,13 L-14,13 L-14,11 L-13,11 L-13,9 L-12,9 L-12,8 L-11,8 L-11,7 L-10,7 L-10,6 L-9,6 L-9,5 L-8,5 L-8,4 L-7,4 L-7,3 L-6,3 L-6,2 L-4,2 L-4,1 L0,1 Z " transform="translate(307,286)" style="fill: #3788C7;"/><path d="M0,0 L10,0 L10,2 L13,2 L13,3 L14,3 L14,4 L15,4 L15,5 L16,5 L16,6 L17,6 L17,7 L19,7 L19,8 L20,8 L20,10 L21,10 L21,12 L22,12 L22,13 L23,13 L23,14 L24,14 L24,15 L25,15 L25,16 L26,16 L26,17 L27,17 L27,19 L28,19 L28,20 L29,20 L29,22 L30,22 L30,24 L31,24 L31,25 L32,25 L32,26 L33,26 L33,27 L34,27 L34,28 L35,28 L35,30 L36,30 L36,31 L37,31 L37,33 L38,33 L38,34 L39,34 L39,35 L40,35 L40,36 L41,36 L41,38 L42,38 L42,39 L43,39 L43,40 L44,40 L44,41 L45,41 L45,45 L46,45 L46,46 L48,46 L48,48 L49,48 L49,55 L47,55 L47,56 L41,56 L41,55 L40,55 L40,53 L39,53 L39,52 L38,52 L38,50 L37,50 L37,49 L36,49 L36,48 L35,48 L35,46 L34,46 L34,45 L33,45 L33,44 L32,44 L32,42 L31,42 L31,41 L30,41 L30,40 L29,40 L29,38 L28,38 L28,37 L27,37 L27,35 L26,35 L26,34 L25,34 L25,33 L24,33 L24,32 L23,32 L23,31 L22,31 L22,29 L21,29 L21,28 L20,28 L20,26 L19,26 L19,24 L18,24 L18,23 L17,23 L17,21 L15,21 L15,20 L14,20 L14,18 L13,18 L13,17 L11,17 L11,14 L10,14 L10,13 L8,13 L8,12 L7,12 L7,11 L3,11 L3,12 L2,12 L2,13 L1,13 L1,14 L0,14 L0,15 L-1,15 L-1,16 L-2,16 L-2,18 L-3,18 L-3,19 L-4,19 L-4,20 L-5,20 L-5,22 L-6,22 L-6,23 L-7,23 L-7,25 L-8,25 L-8,26 L-9,26 L-9,29 L-10,29 L-10,30 L-11,30 L-11,31 L-13,31 L-13,32 L-14,32 L-14,33 L-15,33 L-15,35 L-16,35 L-16,36 L-17,36 L-17,38 L-18,38 L-18,39 L-19,39 L-19,40 L-20,40 L-20,42 L-21,42 L-21,43 L-22,43 L-22,44 L-23,44 L-23,46 L-24,46 L-24,47 L-25,47 L-25,49 L-26,49 L-26,50 L-27,50 L-27,52 L-29,52 L-29,53 L-30,53 L-30,55 L-31,55 L-31,56 L-37,56 L-37,54 L-38,54 L-38,53 L-39,53 L-39,48 L-38,48 L-38,47 L-37,47 L-37,45 L-36,45 L-36,44 L-35,44 L-35,43 L-34,43 L-34,42 L-33,42 L-33,40 L-32,40 L-32,39 L-31,39 L-31,37 L-30,37 L-30,36 L-29,36 L-29,34 L-28,34 L-28,33 L-27,33 L-27,32 L-26,32 L-26,31 L-25,31 L-25,29 L-24,29 L-24,28 L-23,28 L-23,26 L-22,26 L-22,25 L-21,25 L-21,24 L-20,24 L-20,22 L-19,22 L-19,21 L-18,21 L-18,20 L-17,20 L-17,19 L-16,19 L-16,17 L-15,17 L-15,16 L-14,16 L-14,14 L-13,14 L-13,13 L-12,13 L-12,11 L-11,11 L-11,10 L-10,10 L-10,9 L-9,9 L-9,8 L-8,8 L-8,7 L-7,7 L-7,5 L-6,5 L-6,4 L-5,4 L-5,3 L-1,3 L-1,2 L0,2 Z " transform="translate(226,283)" style="fill: #3E8CC9;"/><path d="M0,0 L4,0 L4,1 L5,1 L5,2 L7,2 L7,50 L6,50 L6,51 L5,51 L5,53 L-1,53 L-1,52 L-2,52 L-2,51 L-3,51 L-3,49 L-4,49 L-4,2 L-3,2 L-3,1 L0,1 Z " transform="translate(51,286)" style="fill: #3C8BC8;"/><path d="M0,0 L8,0 L8,1 L9,1 L9,4 L10,4 L10,11 L9,11 L9,12 L8,12 L8,13 L6,13 L6,14 L0,14 L0,13 L-2,13 L-2,12 L-3,12 L-3,10 L-4,10 L-4,4 L-3,4 L-3,3 L-2,3 L-2,2 L-1,2 L-1,1 L0,1 Z " transform="translate(228,319)" style="fill: #4490CB;"/></svg>