<svg id="svg" version="1.1" xmlns="http://www.w3.org/2000/svg" xmlns:xlink="http://www.w3.org/1999/xlink" width="400" height="400" viewBox="0, 0, 400,400"><g id="svgg"><path id="path0" d="M354.500 0.410 C 354.005 0.610,353.600 0.668,353.600 0.538 C 353.600 0.408,353.330 0.526,353.000 0.800 C 352.516 1.201,352.399 1.192,352.394 0.749 C 352.389 0.316,352.319 0.308,352.064 0.710 C 351.887 0.990,351.081 1.244,350.275 1.274 C 349.252 1.313,348.920 1.463,349.177 1.773 C 349.439 2.088,349.091 2.173,347.973 2.066 C 347.001 1.973,346.400 2.085,346.400 2.358 C 346.400 2.610,345.671 2.803,344.700 2.806 C 343.455 2.811,343.161 2.916,343.600 3.200 C 344.185 3.578,343.516 3.715,341.109 3.708 C 340.729 3.707,340.515 3.862,340.633 4.053 C 340.751 4.244,340.297 4.400,339.624 4.400 C 338.951 4.400,338.400 4.580,338.400 4.800 C 338.400 5.020,338.209 5.200,337.976 5.200 C 337.743 5.200,337.664 5.020,337.800 4.800 C 337.936 4.580,337.857 4.400,337.624 4.400 C 337.391 4.400,337.200 4.541,337.200 4.713 C 337.200 4.885,336.390 5.265,335.400 5.557 C 334.410 5.849,333.597 6.293,333.594 6.544 C 333.591 6.795,333.411 6.730,333.194 6.400 C 332.888 5.935,332.727 5.912,332.476 6.300 C 332.299 6.575,331.406 6.829,330.493 6.865 C 329.580 6.901,328.926 7.081,329.040 7.265 C 329.154 7.449,328.922 7.621,328.524 7.646 C 327.551 7.708,327.112 7.800,326.400 8.090 C 325.567 8.430,323.542 8.842,322.691 8.846 C 322.302 8.847,322.075 8.997,322.187 9.179 C 322.299 9.361,322.168 9.502,321.896 9.492 C 320.323 9.435,319.801 9.613,320.400 10.000 C 320.883 10.312,320.819 10.389,320.076 10.394 C 319.568 10.397,319.254 10.236,319.378 10.035 C 319.502 9.834,319.288 9.731,318.902 9.805 C 318.516 9.878,318.054 9.953,317.876 9.969 C 317.698 9.986,317.656 10.167,317.782 10.371 C 317.909 10.576,317.604 10.805,317.106 10.881 C 316.608 10.957,316.248 11.247,316.306 11.527 C 316.382 11.894,316.215 11.929,315.701 11.654 C 314.655 11.094,312.885 11.565,312.050 12.627 C 311.546 13.268,311.189 13.429,310.904 13.144 C 310.619 12.859,310.406 12.866,310.221 13.166 C 310.036 13.465,309.716 13.476,309.206 13.203 C 308.363 12.752,306.400 12.811,306.400 13.287 C 306.400 13.459,306.004 13.600,305.520 13.600 C 304.836 13.600,304.747 13.707,305.120 14.080 C 305.985 14.945,305.622 15.252,304.724 14.415 C 304.242 13.966,303.747 13.734,303.624 13.899 C 303.501 14.065,303.040 14.262,302.600 14.338 C 302.160 14.414,301.655 14.730,301.479 15.040 C 301.270 15.407,300.815 15.519,300.179 15.359 C 299.469 15.181,299.200 15.277,299.200 15.708 C 299.200 16.469,298.157 17.344,297.635 17.022 C 297.415 16.886,297.336 16.511,297.459 16.189 C 297.583 15.868,297.873 15.721,298.104 15.864 C 298.366 16.026,298.403 15.928,298.201 15.601 C 297.727 14.834,296.711 16.313,297.161 17.116 C 297.415 17.570,283.370 31.839,238.548 76.660 C 206.126 109.080,179.600 135.814,179.600 136.070 C 179.600 136.325,179.496 136.430,179.370 136.303 C 178.772 135.705,114.337 200.842,114.873 201.503 C 115.320 202.055,115.309 202.103,114.800 201.820 C 114.267 201.524,114.267 201.555,114.800 202.101 C 115.130 202.438,115.850 202.833,116.400 202.978 C 117.361 203.231,117.370 203.217,116.624 202.621 C 116.196 202.279,116.016 202.003,116.224 202.006 C 116.431 202.010,117.216 202.556,117.969 203.219 C 118.864 204.008,119.433 204.271,119.613 203.979 C 119.779 203.710,119.984 203.896,120.129 204.449 C 120.260 204.953,120.478 205.255,120.612 205.121 C 120.747 204.987,121.329 205.122,121.907 205.422 C 122.679 205.822,123.098 205.850,123.488 205.527 C 123.905 205.181,123.959 205.241,123.742 205.808 C 123.515 206.398,123.622 206.488,124.332 206.302 C 124.809 206.177,125.310 206.254,125.445 206.472 C 125.580 206.691,126.048 206.776,126.485 206.662 C 127.115 206.497,127.237 206.614,127.077 207.227 C 126.918 207.837,127.083 208.000,127.861 208.000 C 128.458 208.000,128.743 208.168,128.583 208.427 C 128.438 208.661,128.563 208.820,128.860 208.779 C 129.851 208.643,130.449 208.796,130.241 209.133 C 130.128 209.317,130.252 209.486,130.518 209.510 C 131.391 209.588,132.192 209.818,132.700 210.135 C 132.975 210.307,133.200 210.319,133.200 210.162 C 133.200 210.005,133.515 210.137,133.900 210.455 C 135.036 211.395,136.694 212.113,137.120 211.849 C 137.338 211.715,137.619 211.874,137.746 212.202 C 137.872 212.531,138.320 212.800,138.742 212.800 C 139.734 212.800,141.666 213.801,141.327 214.139 C 141.184 214.283,141.463 214.400,141.947 214.400 C 142.432 214.400,143.272 214.691,143.814 215.046 C 144.356 215.401,144.800 215.568,144.800 215.417 C 144.800 215.266,145.092 215.435,145.448 215.791 C 145.805 216.148,146.602 216.540,147.221 216.664 C 147.839 216.788,148.679 217.200,149.087 217.580 C 149.495 217.961,150.123 218.229,150.483 218.176 C 150.842 218.123,151.554 218.373,152.065 218.731 C 152.576 219.089,153.176 219.412,153.397 219.449 C 154.507 219.634,155.024 219.834,155.268 220.172 C 155.415 220.376,155.783 220.580,156.086 220.624 C 156.388 220.669,157.473 221.086,158.496 221.553 C 159.519 222.019,160.557 222.400,160.802 222.400 C 161.047 222.400,161.117 222.611,160.958 222.868 C 160.766 223.178,160.883 223.254,161.305 223.092 C 161.655 222.957,162.148 223.096,162.400 223.400 C 162.652 223.704,163.115 223.854,163.429 223.733 C 163.743 223.613,164.000 223.714,164.000 223.957 C 164.000 224.201,164.360 224.400,164.800 224.400 C 165.240 224.400,165.600 224.580,165.600 224.800 C 165.600 225.020,165.870 225.200,166.200 225.200 C 166.530 225.200,166.800 225.380,166.800 225.600 C 166.800 225.820,167.158 226.000,167.595 226.000 C 168.033 226.000,168.781 226.315,169.259 226.700 C 171.247 228.303,172.400 229.518,172.400 230.010 C 172.400 230.298,172.517 230.416,172.661 230.273 C 172.960 229.973,174.000 231.816,174.000 232.646 C 174.000 232.951,174.180 233.200,174.400 233.200 C 174.620 233.200,174.800 233.560,174.800 234.000 C 174.800 234.440,174.980 234.800,175.200 234.800 C 175.420 234.800,175.600 235.149,175.600 235.576 C 175.600 236.003,175.783 236.466,176.007 236.604 C 176.230 236.742,176.322 237.002,176.211 237.182 C 176.100 237.362,176.275 237.730,176.600 238.000 C 176.925 238.270,177.092 238.652,176.970 238.848 C 176.849 239.045,177.013 239.307,177.336 239.431 C 177.677 239.562,177.879 240.063,177.817 240.628 C 177.748 241.252,177.914 241.600,178.279 241.600 C 178.591 241.600,178.751 241.755,178.634 241.944 C 178.517 242.134,179.015 243.468,179.740 244.908 C 180.464 246.349,181.015 247.814,180.964 248.164 C 180.913 248.514,181.035 248.800,181.235 248.800 C 181.436 248.800,181.600 249.149,181.600 249.576 C 181.600 250.003,181.780 250.464,182.000 250.600 C 182.220 250.736,182.400 251.177,182.400 251.581 C 182.400 251.984,182.689 252.425,183.042 252.561 C 183.408 252.701,183.585 253.063,183.454 253.403 C 183.328 253.732,183.404 254.000,183.622 254.000 C 184.029 254.000,184.733 255.527,184.934 256.844 C 184.996 257.249,185.200 257.719,185.387 257.890 C 185.575 258.060,185.582 257.947,185.402 257.638 C 185.181 257.257,185.227 257.170,185.545 257.366 C 185.802 257.525,185.897 257.843,185.755 258.072 C 185.614 258.302,185.696 258.612,185.939 258.762 C 186.182 258.912,186.430 259.477,186.490 260.017 C 186.551 260.558,186.690 261.090,186.800 261.200 C 187.278 261.678,188.000 263.239,188.000 263.795 C 188.000 264.128,188.151 264.400,188.336 264.400 C 188.521 264.400,188.908 265.114,189.196 265.987 C 189.484 266.859,189.900 267.462,190.121 267.325 C 190.355 267.181,190.399 267.278,190.227 267.556 C 190.064 267.819,190.218 268.474,190.569 269.009 C 190.920 269.545,191.244 270.424,191.289 270.963 C 191.333 271.502,191.492 271.867,191.642 271.774 C 191.874 271.630,192.058 272.068,192.617 274.100 C 192.663 274.265,192.722 274.591,192.750 274.824 C 192.778 275.057,192.980 275.136,193.200 275.000 C 193.422 274.863,193.606 275.165,193.613 275.676 C 193.620 276.184,193.890 276.949,194.213 277.376 C 194.536 277.804,194.800 278.484,194.800 278.889 C 194.800 279.294,195.059 279.724,195.375 279.846 C 195.693 279.968,195.857 280.364,195.742 280.733 C 195.582 281.249,195.690 281.219,196.221 280.600 C 196.853 279.864,196.887 279.860,196.647 280.551 C 196.504 280.964,196.595 281.553,196.850 281.860 C 197.225 282.312,197.169 282.372,196.557 282.177 C 195.833 281.945,195.834 281.962,196.576 282.567 C 197.004 282.915,197.139 283.200,196.876 283.200 C 196.614 283.200,196.400 283.391,196.400 283.624 C 196.400 283.857,196.561 283.948,196.758 283.826 C 197.171 283.571,197.769 284.740,197.636 285.540 C 197.587 285.837,197.722 285.972,197.936 285.840 C 198.167 285.697,198.231 285.964,198.093 286.499 C 197.879 287.333,197.917 287.355,198.607 286.800 C 199.086 286.415,199.242 286.386,199.042 286.718 C 198.871 287.002,198.949 287.497,199.215 287.818 C 199.480 288.138,199.581 288.400,199.439 288.400 C 199.296 288.400,199.454 288.931,199.790 289.580 C 200.125 290.229,200.414 291.264,200.432 291.880 C 200.449 292.496,200.556 292.767,200.670 292.483 C 200.834 292.075,201.001 292.069,201.466 292.454 C 201.958 292.863,216.376 278.623,290.042 204.971 C 338.435 156.587,378.279 117.023,378.583 117.050 C 378.894 117.079,379.046 116.863,378.929 116.560 C 378.807 116.242,379.148 115.824,379.754 115.548 C 380.712 115.112,380.736 115.038,380.093 114.527 C 379.460 114.023,379.487 113.985,380.400 114.088 C 381.499 114.211,381.908 112.051,381.015 110.835 C 380.660 110.351,380.745 110.346,381.600 110.800 C 382.516 111.286,382.554 111.275,382.051 110.665 C 381.694 110.233,381.659 110.000,381.951 110.000 C 382.198 110.000,382.400 109.719,382.400 109.376 C 382.400 109.033,382.257 108.841,382.083 108.949 C 381.909 109.056,381.740 108.797,381.708 108.372 C 381.676 107.948,381.829 107.600,382.048 107.600 C 382.268 107.600,382.318 107.825,382.159 108.100 C 382.001 108.375,382.025 108.460,382.213 108.290 C 382.400 108.119,382.613 107.589,382.686 107.112 C 382.759 106.635,383.084 105.712,383.409 105.061 C 384.147 103.582,384.147 103.579,383.300 103.845 C 382.702 104.033,382.713 103.973,383.376 103.433 C 383.804 103.085,383.939 102.800,383.676 102.800 C 383.094 102.800,383.041 101.346,383.610 100.994 C 383.835 100.855,383.970 100.956,383.910 101.220 C 383.849 101.484,384.010 101.778,384.267 101.872 C 384.571 101.985,384.688 101.653,384.601 100.922 C 384.528 100.305,384.691 99.440,384.964 99.000 C 385.890 97.506,386.106 96.614,385.399 97.200 C 385.059 97.483,384.665 97.598,384.524 97.457 C 384.382 97.316,384.477 97.200,384.733 97.200 C 384.990 97.200,385.200 97.009,385.200 96.776 C 385.200 96.543,385.007 96.472,384.770 96.618 C 384.533 96.765,384.569 96.518,384.851 96.068 C 385.131 95.619,385.504 95.341,385.680 95.449 C 385.856 95.558,386.000 95.277,386.000 94.824 C 386.000 94.371,386.161 94.000,386.357 94.000 C 386.554 94.000,386.828 93.705,386.966 93.343 C 387.186 92.770,387.129 92.756,386.509 93.237 C 385.916 93.696,385.925 93.639,386.564 92.891 C 386.985 92.398,387.211 91.878,387.068 91.734 C 386.924 91.591,386.992 91.251,387.217 90.979 C 387.506 90.632,387.448 90.305,387.024 89.881 C 386.513 89.370,386.507 89.245,386.984 89.061 C 387.295 88.942,387.636 89.060,387.743 89.322 C 387.849 89.585,387.951 89.485,387.968 89.100 C 387.986 88.715,387.775 88.395,387.500 88.388 C 387.225 88.381,387.319 88.190,387.708 87.963 C 388.098 87.736,388.320 87.394,388.202 87.203 C 388.084 87.012,388.170 86.742,388.393 86.604 C 388.617 86.466,388.800 86.003,388.800 85.576 C 388.800 85.149,388.945 84.800,389.123 84.800 C 389.301 84.800,389.408 84.255,389.362 83.589 C 389.316 82.924,389.511 82.146,389.795 81.862 C 390.134 81.523,390.189 81.123,389.954 80.703 C 389.710 80.267,389.796 79.861,390.223 79.434 C 390.568 79.089,390.739 78.625,390.602 78.403 C 390.465 78.181,390.521 78.000,390.726 78.000 C 390.932 78.000,391.116 77.595,391.135 77.100 C 391.192 75.622,391.403 74.920,392.018 74.164 C 392.530 73.532,392.528 73.489,392.000 73.800 C 391.515 74.086,391.489 74.043,391.866 73.577 C 392.389 72.930,392.400 72.879,392.400 71.176 C 392.400 70.398,392.558 70.050,392.835 70.221 C 393.118 70.397,393.224 70.092,393.139 69.345 C 393.067 68.715,393.187 68.229,393.404 68.265 C 393.622 68.301,393.814 67.701,393.831 66.931 C 393.849 66.162,394.048 65.412,394.275 65.266 C 394.501 65.120,394.638 64.682,394.578 64.294 C 394.518 63.906,394.724 63.334,395.035 63.023 C 395.649 62.408,395.805 61.826,395.267 62.159 C 395.083 62.272,394.933 62.111,394.933 61.800 C 394.933 61.489,395.107 61.342,395.319 61.473 C 395.530 61.604,395.615 61.461,395.507 61.156 C 395.398 60.850,395.554 60.116,395.852 59.525 C 396.151 58.933,396.358 58.002,396.313 57.456 C 396.268 56.910,396.425 56.044,396.662 55.532 C 396.899 55.019,397.318 54.122,397.594 53.538 C 397.869 52.954,397.981 52.294,397.844 52.070 C 397.706 51.847,397.819 51.425,398.096 51.132 C 398.373 50.840,398.662 50.071,398.738 49.425 C 398.815 48.779,399.068 47.789,399.301 47.225 C 399.894 45.790,400.104 31.008,399.560 29.000 C 399.321 28.120,399.033 26.815,398.919 26.100 C 398.805 25.385,398.591 24.800,398.444 24.800 C 398.296 24.800,397.935 23.990,397.643 23.000 C 397.351 22.010,396.952 21.200,396.756 21.200 C 396.560 21.200,396.400 20.851,396.400 20.424 C 396.400 19.997,396.220 19.536,396.000 19.400 C 395.780 19.264,395.600 18.793,395.600 18.353 C 395.600 17.913,395.420 17.664,395.200 17.800 C 394.840 18.022,394.627 17.497,394.753 16.700 C 394.779 16.535,394.620 16.400,394.400 16.400 C 394.180 16.400,394.000 16.173,394.000 15.896 C 394.000 15.619,393.640 15.168,393.200 14.893 C 392.760 14.618,392.400 14.125,392.400 13.797 C 392.400 13.468,392.220 13.200,392.000 13.200 C 391.780 13.200,391.600 12.930,391.600 12.600 C 391.600 12.270,391.390 12.045,391.133 12.100 C 390.876 12.155,390.428 11.750,390.139 11.200 C 389.849 10.650,389.609 10.342,389.606 10.516 C 389.603 10.689,389.349 10.599,389.042 10.316 C 388.735 10.032,388.566 9.665,388.666 9.500 C 388.765 9.335,388.556 9.200,388.200 9.200 C 387.844 9.200,387.656 9.033,387.782 8.829 C 387.908 8.625,387.658 8.345,387.226 8.208 C 386.794 8.071,385.873 7.429,385.180 6.781 C 384.486 6.133,383.757 5.703,383.559 5.825 C 383.362 5.947,383.200 5.890,383.200 5.698 C 383.200 5.506,382.578 5.105,381.818 4.807 C 381.058 4.509,380.529 4.115,380.642 3.932 C 380.755 3.750,380.544 3.600,380.173 3.600 C 379.802 3.600,378.441 3.062,377.147 2.405 C 375.853 1.747,374.706 1.207,374.598 1.205 C 374.489 1.202,373.939 1.200,373.376 1.200 C 372.813 1.200,372.445 1.050,372.559 0.867 C 372.956 0.224,356.017 -0.205,354.500 0.410 M303.162 15.224 C 302.874 15.402,302.475 15.447,302.276 15.324 C 302.077 15.201,302.150 14.954,302.438 14.776 C 302.726 14.598,303.125 14.553,303.324 14.676 C 303.523 14.799,303.450 15.046,303.162 15.224 M289.790 18.028 C 290.445 18.221,291.127 18.233,291.305 18.055 C 291.483 17.877,290.948 17.719,290.115 17.704 C 288.619 17.678,288.615 17.682,289.790 18.028 M285.863 18.670 C 285.363 19.171,286.093 19.621,286.653 19.156 C 287.093 18.791,287.346 18.786,287.697 19.137 C 288.315 19.755,288.800 19.723,288.800 19.065 C 288.800 18.523,286.341 18.192,285.863 18.670 M276.406 21.871 C 276.417 22.474,277.187 23.457,277.194 22.876 C 277.197 22.588,277.403 22.478,277.652 22.632 C 277.926 22.802,278.031 22.693,277.919 22.356 C 277.718 21.754,276.396 21.330,276.406 21.871 M272.189 22.783 C 272.319 22.993,272.719 23.052,273.078 22.915 C 273.565 22.728,273.644 22.808,273.389 23.232 C 273.097 23.717,273.146 23.720,273.723 23.251 C 274.650 22.499,274.587 22.400,273.176 22.400 C 272.500 22.400,272.058 22.571,272.189 22.783 M252.467 28.119 C 252.149 28.502,252.237 28.629,252.822 28.629 C 253.633 28.629,253.857 28.206,253.245 27.828 C 253.050 27.707,252.700 27.838,252.467 28.119 M243.730 30.514 C 243.316 31.183,243.965 31.270,244.834 30.661 L 245.720 30.041 244.830 30.108 C 244.340 30.145,243.845 30.327,243.730 30.514 M379.100 118.157 C 378.239 118.811,378.223 119.046,379.021 119.353 C 379.391 119.495,379.539 119.424,379.386 119.178 C 379.246 118.951,379.349 118.503,379.615 118.182 C 380.210 117.465,380.023 117.456,379.100 118.157 M378.000 122.824 C 378.000 123.057,377.847 123.153,377.660 123.037 C 377.474 122.922,377.306 123.351,377.288 123.991 C 377.266 124.773,377.420 125.090,377.761 124.960 C 378.186 124.797,378.534 122.400,378.133 122.400 C 378.060 122.400,378.000 122.591,378.000 122.824 M375.835 130.525 C 375.273 130.936,375.206 131.157,375.574 131.384 C 376.152 131.741,376.959 131.076,376.740 130.421 C 376.636 130.109,376.361 130.141,375.835 130.525 M373.084 139.892 C 372.902 140.846,372.939 140.897,373.377 140.299 C 373.653 139.921,374.006 139.739,374.161 139.894 C 374.316 140.049,374.324 139.866,374.178 139.488 C 373.790 138.476,373.322 138.649,373.084 139.892 M368.284 158.800 C 368.161 159.270,368.272 159.600,368.552 159.600 C 368.814 159.600,369.029 159.240,369.029 158.800 C 369.029 158.360,368.908 158.000,368.761 158.000 C 368.614 158.000,368.399 158.360,368.284 158.800 M86.000 189.524 C 86.000 189.739,86.285 190.024,86.633 190.157 C 87.023 190.307,87.206 190.218,87.108 189.925 C 86.909 189.327,86.000 188.998,86.000 189.524 M92.600 192.400 C 93.260 192.837,93.980 193.195,94.200 193.196 C 94.420 193.196,94.011 192.838,93.290 192.399 C 91.592 191.363,91.036 191.364,92.600 192.400 M105.634 196.770 C 105.323 196.967,104.748 197.067,104.357 196.992 C 103.864 196.897,103.716 197.037,103.875 197.450 C 104.000 197.778,104.365 197.946,104.684 197.823 C 105.004 197.700,105.491 197.600,105.766 197.600 C 106.041 197.600,106.267 197.330,106.267 197.000 C 106.267 196.670,106.252 196.403,106.233 196.406 C 106.215 196.409,105.945 196.573,105.634 196.770 M110.320 199.142 C 110.606 199.324,110.869 199.852,110.904 200.316 C 110.981 201.343,112.017 200.699,111.972 199.651 C 111.950 199.146,111.876 199.174,111.639 199.779 C 111.348 200.522,111.324 200.517,111.105 199.679 C 110.978 199.195,110.633 198.803,110.337 198.806 C 109.902 198.811,109.898 198.875,110.320 199.142 M352.267 218.267 C 352.120 218.413,352.000 218.893,352.000 219.333 C 352.000 220.302,352.506 219.894,352.674 218.790 C 352.802 217.956,352.703 217.830,352.267 218.267 M203.748 298.459 C 204.352 298.810,204.390 298.960,203.948 299.241 C 203.515 299.515,203.510 299.589,203.924 299.594 C 204.212 299.597,204.344 299.768,204.217 299.972 C 204.091 300.177,204.173 300.460,204.400 300.600 C 204.627 300.740,204.722 301.002,204.611 301.182 C 204.500 301.362,204.722 301.755,205.104 302.055 C 205.734 302.548,205.748 302.533,205.251 301.900 C 204.949 301.515,204.836 301.200,205.000 301.200 C 205.164 301.200,205.097 300.958,204.852 300.663 C 204.607 300.368,204.512 300.022,204.640 299.893 C 205.086 299.448,204.342 298.000,203.673 298.012 C 203.086 298.023,203.096 298.080,203.748 298.459 M206.592 303.715 C 206.073 304.333,206.079 305.293,206.604 305.468 C 206.826 305.542,207.030 305.062,207.057 304.401 C 207.084 303.741,207.083 303.207,207.053 303.215 C 207.024 303.224,206.816 303.449,206.592 303.715 " stroke="none" fill="#f4546c" fill-rule="evenodd"></path><path id="path1" d="M315.409 10.765 C 314.625 11.072,314.625 11.078,315.426 11.507 C 316.103 11.869,316.244 11.814,316.292 11.170 C 316.324 10.746,316.316 10.413,316.275 10.428 C 316.234 10.444,315.844 10.595,315.409 10.765 M311.627 12.300 C 311.267 12.911,311.163 12.923,310.813 12.400 C 310.544 11.997,310.410 11.964,310.406 12.300 C 310.403 12.575,310.265 12.779,310.100 12.753 C 309.087 12.593,308.609 12.818,309.187 13.183 C 309.553 13.415,309.953 13.405,310.251 13.158 C 310.571 12.892,310.820 12.909,311.006 13.210 C 311.189 13.505,311.487 13.369,311.878 12.810 C 312.382 12.091,312.573 12.041,313.136 12.481 C 313.730 12.945,313.742 12.926,313.251 12.300 C 312.949 11.915,312.553 11.600,312.371 11.600 C 312.189 11.600,311.854 11.915,311.627 12.300 M304.630 14.348 C 305.054 14.760,305.471 15.034,305.557 14.958 C 305.809 14.735,304.743 13.600,304.281 13.600 C 304.049 13.600,304.207 13.937,304.630 14.348 M300.588 14.820 C 300.207 15.435,300.728 15.832,301.242 15.318 C 301.529 15.031,301.536 14.807,301.262 14.639 C 301.039 14.500,300.735 14.582,300.588 14.820 M302.438 14.776 C 302.150 14.954,302.077 15.201,302.276 15.324 C 302.475 15.447,302.874 15.402,303.162 15.224 C 303.450 15.046,303.523 14.799,303.324 14.676 C 303.125 14.553,302.726 14.598,302.438 14.776 M297.613 15.976 C 297.325 16.513,297.326 16.831,297.616 17.010 C 298.139 17.333,299.200 16.490,299.200 15.751 C 299.200 14.929,298.089 15.086,297.613 15.976 M294.770 16.637 C 294.570 16.877,294.500 17.166,294.613 17.280 C 294.727 17.393,294.500 17.737,294.110 18.043 C 293.464 18.549,293.450 18.537,293.949 17.900 C 294.556 17.126,294.564 17.136,293.312 17.004 C 292.824 16.953,292.121 17.246,291.750 17.655 C 291.078 18.397,290.162 18.708,290.564 18.058 C 290.681 17.870,290.331 17.801,289.788 17.904 C 289.136 18.029,288.800 18.361,288.800 18.880 C 288.800 19.340,288.593 19.591,288.300 19.483 C 288.025 19.383,287.848 19.090,287.906 18.833 C 287.984 18.489,287.773 18.497,287.106 18.863 C 286.608 19.136,285.795 19.311,285.300 19.251 C 284.805 19.192,284.400 19.336,284.400 19.571 C 284.400 19.807,284.265 19.979,284.100 19.953 C 283.089 19.793,282.396 20.092,282.372 20.700 C 282.349 21.273,282.294 21.291,282.072 20.800 C 281.726 20.037,280.800 19.833,280.800 20.520 C 280.800 20.853,280.261 21.041,279.300 21.044 C 277.983 21.047,277.812 21.158,277.899 21.947 C 277.956 22.464,277.829 22.741,277.599 22.600 C 277.380 22.464,277.188 22.588,277.173 22.876 C 277.158 23.164,276.951 22.995,276.712 22.500 C 276.307 21.660,275.215 21.231,275.187 21.900 C 275.181 22.065,274.701 22.546,274.122 22.968 C 273.542 23.391,273.185 23.548,273.327 23.318 C 273.480 23.070,273.182 22.900,272.593 22.900 C 272.047 22.900,271.600 23.077,271.600 23.293 C 271.600 23.509,271.342 23.586,271.026 23.465 C 270.710 23.344,270.364 23.460,270.257 23.722 C 270.119 24.063,270.054 24.050,270.032 23.677 C 270.007 23.272,269.805 23.292,269.126 23.766 C 268.643 24.105,267.858 24.279,267.370 24.157 C 266.885 24.035,266.367 24.130,266.220 24.368 C 266.073 24.605,265.601 24.800,265.171 24.800 C 264.416 24.800,264.026 24.944,262.105 25.938 C 261.613 26.192,260.578 26.400,259.805 26.400 C 259.032 26.400,258.400 26.601,258.400 26.847 C 258.400 27.096,258.047 27.201,257.599 27.084 C 257.159 26.969,256.898 27.035,257.019 27.231 C 257.141 27.428,256.712 27.482,256.062 27.352 C 255.199 27.180,254.671 27.329,254.089 27.911 C 253.625 28.375,253.090 28.579,252.803 28.402 C 252.198 28.028,250.800 28.355,250.800 28.870 C 250.800 29.078,250.641 29.149,250.446 29.028 C 250.134 28.835,248.602 29.203,246.800 29.904 C 246.470 30.032,245.804 30.157,245.320 30.182 C 244.836 30.206,244.296 30.384,244.120 30.577 C 243.939 30.776,244.043 30.787,244.362 30.602 C 244.740 30.383,244.830 30.427,244.637 30.740 C 244.471 31.008,243.938 31.099,243.370 30.957 C 242.831 30.821,242.141 30.917,241.837 31.169 C 241.533 31.422,241.130 31.588,240.942 31.539 C 240.399 31.398,235.840 32.491,235.420 32.863 C 235.211 33.048,234.536 33.200,233.920 33.200 C 233.304 33.200,232.800 33.350,232.800 33.533 C 232.800 33.867,232.472 33.949,230.600 34.087 C 230.050 34.127,229.600 34.304,229.600 34.480 C 229.600 34.656,228.970 34.800,228.200 34.800 C 227.430 34.800,226.800 34.980,226.800 35.200 C 226.800 35.420,226.080 35.600,225.200 35.600 C 224.320 35.600,223.600 35.780,223.600 36.000 C 223.600 36.220,222.970 36.400,222.200 36.400 C 221.430 36.400,220.800 36.580,220.800 36.800 C 220.800 37.020,220.350 37.200,219.800 37.200 C 219.250 37.200,218.800 37.345,218.800 37.522 C 218.800 37.699,218.042 37.888,217.115 37.943 C 216.189 37.998,215.232 38.207,214.989 38.409 C 214.746 38.611,213.986 38.819,213.301 38.871 C 212.616 38.923,212.144 39.109,212.251 39.283 C 212.359 39.457,211.717 39.600,210.824 39.600 C 209.931 39.600,209.200 39.780,209.200 40.000 C 209.200 40.220,208.808 40.400,208.328 40.400 C 207.408 40.400,205.072 41.060,203.905 41.649 C 203.523 41.842,202.794 42.000,202.285 42.000 C 201.776 42.000,201.144 42.216,200.880 42.480 C 200.616 42.744,200.400 42.847,200.400 42.708 C 200.400 42.569,199.815 42.638,199.100 42.861 C 197.110 43.482,195.144 43.974,193.600 44.240 C 192.830 44.372,191.930 44.618,191.600 44.786 C 191.270 44.954,190.775 45.011,190.500 44.913 C 190.225 44.814,190.000 44.898,190.000 45.100 C 190.000 45.470,189.810 45.529,188.000 45.717 C 187.450 45.775,186.640 46.009,186.200 46.237 C 185.760 46.466,185.130 46.635,184.800 46.613 C 184.470 46.591,184.092 46.726,183.961 46.912 C 183.829 47.098,183.154 47.266,182.461 47.286 C 181.767 47.306,181.200 47.474,181.200 47.661 C 181.200 47.847,180.660 48.000,180.000 48.000 C 179.340 48.000,178.800 48.142,178.800 48.315 C 178.800 48.488,178.305 48.672,177.700 48.725 C 176.378 48.838,175.602 48.998,174.800 49.321 C 174.470 49.453,173.840 49.616,173.400 49.681 C 172.960 49.746,172.494 49.944,172.364 50.120 C 172.235 50.295,171.470 50.475,170.664 50.520 C 169.859 50.564,169.200 50.735,169.200 50.900 C 169.200 51.065,168.838 51.200,168.395 51.200 C 167.952 51.200,167.277 51.363,166.895 51.563 C 166.513 51.762,164.940 52.225,163.400 52.590 C 160.698 53.230,159.387 53.580,156.400 54.455 C 155.630 54.681,154.460 54.966,153.800 55.088 C 153.140 55.210,152.488 55.484,152.352 55.695 C 152.215 55.907,151.450 56.080,150.652 56.080 C 149.853 56.080,149.200 56.242,149.200 56.440 C 149.200 56.638,148.786 56.800,148.280 56.800 C 147.774 56.800,147.118 57.025,146.821 57.300 C 146.384 57.706,146.342 57.688,146.600 57.200 C 146.858 56.712,146.816 56.694,146.379 57.100 C 146.082 57.375,145.462 57.600,145.000 57.600 C 144.538 57.600,143.976 57.784,143.750 58.010 C 143.525 58.235,142.686 58.444,141.887 58.474 C 141.087 58.504,140.526 58.680,140.640 58.864 C 140.754 59.049,140.243 59.200,139.504 59.200 C 138.765 59.200,137.944 59.416,137.680 59.680 C 137.416 59.944,137.200 60.038,137.200 59.890 C 137.200 59.741,136.705 59.817,136.100 60.059 C 135.495 60.300,134.550 60.548,134.000 60.609 C 133.450 60.671,133.000 60.752,133.000 60.791 C 133.000 60.830,132.669 60.924,132.265 61.000 C 131.861 61.077,131.216 61.423,130.833 61.770 C 130.046 62.482,129.421 62.613,129.810 61.984 C 130.112 61.495,128.017 61.905,127.420 62.452 C 127.211 62.643,126.435 62.800,125.696 62.800 C 124.957 62.800,124.436 62.935,124.537 63.100 C 124.639 63.265,124.180 63.439,123.517 63.487 C 122.855 63.535,122.028 63.805,121.679 64.087 C 121.147 64.518,121.103 64.504,121.400 64.000 C 121.694 63.501,121.650 63.484,121.136 63.900 C 120.796 64.175,119.996 64.459,119.359 64.532 C 118.206 64.662,117.508 64.878,115.600 65.692 C 115.050 65.926,114.150 66.137,113.600 66.159 C 113.050 66.182,112.391 66.336,112.136 66.502 C 111.880 66.667,111.160 66.842,110.536 66.889 C 109.911 66.936,109.173 67.195,108.895 67.464 C 108.618 67.732,108.033 67.883,107.595 67.799 C 107.062 67.696,106.790 67.869,106.768 68.323 C 106.751 68.706,106.652 68.792,106.542 68.520 C 106.408 68.190,106.055 68.151,105.414 68.394 C 104.902 68.589,104.374 68.640,104.241 68.508 C 104.109 68.375,104.000 68.507,104.000 68.800 C 104.000 69.093,103.878 69.212,103.730 69.063 C 103.581 68.914,103.012 69.199,102.466 69.696 C 101.676 70.415,101.524 70.456,101.723 69.900 C 101.862 69.515,101.816 69.200,101.621 69.200 C 101.426 69.200,101.207 69.380,101.133 69.599 C 101.060 69.819,100.245 70.028,99.322 70.064 C 98.362 70.101,97.677 70.316,97.722 70.565 C 97.765 70.804,97.375 70.954,96.856 70.897 C 96.171 70.822,95.973 70.953,96.136 71.377 C 96.285 71.767,96.168 71.886,95.780 71.737 C 95.450 71.610,95.197 71.749,95.194 72.057 C 95.190 72.390,95.074 72.443,94.894 72.195 C 94.530 71.693,92.278 71.549,91.994 72.010 C 91.879 72.196,91.248 72.435,90.593 72.541 C 89.937 72.647,89.310 72.752,89.200 72.773 C 89.090 72.795,89.270 72.999,89.600 73.227 C 90.034 73.526,89.672 73.577,88.292 73.408 C 86.845 73.232,86.331 73.314,86.164 73.748 C 86.020 74.125,85.555 74.260,84.807 74.142 C 84.182 74.044,83.554 74.151,83.411 74.382 C 83.269 74.612,82.703 74.800,82.153 74.800 C 81.459 74.800,81.245 74.953,81.453 75.300 C 81.657 75.640,81.537 75.624,81.077 75.251 C 80.478 74.766,80.393 74.812,80.335 75.651 C 80.289 76.337,70.241 86.590,44.034 112.695 C 24.103 132.547,7.854 149.017,7.923 149.295 C 7.993 149.573,7.771 149.453,7.429 149.029 C 7.088 148.605,6.728 148.339,6.629 148.438 C 6.531 148.536,6.934 149.177,7.525 149.862 C 8.116 150.546,8.986 151.593,9.458 152.187 C 9.929 152.782,10.469 153.228,10.658 153.179 C 10.846 153.131,11.173 153.464,11.384 153.919 C 11.876 154.983,13.459 155.755,13.762 155.079 C 13.892 154.789,13.956 154.836,13.925 155.200 C 13.828 156.338,14.449 157.257,15.005 156.796 C 15.388 156.478,15.501 156.547,15.458 157.071 C 15.426 157.455,15.715 157.834,16.100 157.914 C 16.562 158.010,16.802 157.811,16.806 157.329 C 16.811 156.726,16.876 156.701,17.183 157.187 C 17.418 157.558,17.398 157.961,17.128 158.287 C 16.799 158.683,16.947 158.800,17.775 158.800 C 18.492 158.800,18.751 158.955,18.558 159.268 C 18.364 159.583,18.487 159.652,18.934 159.481 C 19.369 159.314,19.600 159.429,19.600 159.813 C 19.600 160.136,19.735 160.369,19.900 160.330 C 20.065 160.292,20.650 160.458,21.200 160.700 C 21.750 160.942,22.785 161.378,23.500 161.668 C 24.215 161.958,24.800 162.346,24.800 162.531 C 24.800 162.716,25.025 162.790,25.300 162.696 C 25.575 162.602,26.492 162.960,27.337 163.491 C 28.183 164.022,29.128 164.360,29.437 164.241 C 29.763 164.116,30.000 164.272,30.000 164.613 C 30.000 164.936,30.238 165.200,30.529 165.200 C 30.819 165.200,31.763 165.543,32.626 165.963 C 33.489 166.383,34.331 166.642,34.498 166.540 C 34.664 166.437,34.800 166.543,34.800 166.776 C 34.800 167.009,34.935 167.164,35.100 167.121 C 35.646 166.977,37.200 167.647,37.200 168.027 C 37.200 168.232,37.560 168.400,38.000 168.400 C 38.440 168.400,38.800 168.591,38.800 168.824 C 38.800 169.057,38.964 169.146,39.165 169.022 C 39.365 168.898,40.040 169.058,40.665 169.378 C 41.797 169.958,42.699 170.276,43.336 170.322 C 43.521 170.336,43.888 170.641,44.152 171.002 C 44.415 171.362,44.804 171.616,45.015 171.566 C 45.227 171.517,46.120 171.808,47.000 172.213 C 47.880 172.617,48.735 172.915,48.900 172.874 C 49.065 172.833,49.200 172.980,49.200 173.200 C 49.200 173.420,49.650 173.600,50.200 173.600 C 50.750 173.600,51.200 173.780,51.200 174.000 C 51.200 174.220,51.560 174.400,52.000 174.400 C 52.440 174.400,52.800 174.580,52.800 174.800 C 52.800 175.020,53.065 175.200,53.388 175.200 C 53.711 175.200,54.617 175.560,55.400 176.000 C 56.183 176.440,57.179 176.800,57.612 176.800 C 58.045 176.800,58.400 176.980,58.400 177.200 C 58.400 177.420,58.760 177.600,59.200 177.600 C 59.640 177.600,60.000 177.780,60.000 178.000 C 60.000 178.220,60.360 178.400,60.800 178.400 C 61.240 178.400,61.600 178.599,61.600 178.843 C 61.600 179.086,61.833 179.196,62.117 179.087 C 62.401 178.978,62.975 179.139,63.393 179.444 C 63.811 179.750,64.479 180.000,64.876 180.000 C 65.274 180.000,65.600 180.180,65.600 180.400 C 65.600 180.620,65.915 180.804,66.300 180.809 C 66.685 180.814,67.450 181.170,68.000 181.600 C 68.550 182.030,69.294 182.386,69.654 182.391 C 70.014 182.396,70.824 182.669,71.454 182.998 C 72.084 183.326,72.906 183.596,73.280 183.598 C 73.654 183.599,74.144 183.915,74.368 184.300 C 74.592 184.685,74.781 184.868,74.788 184.707 C 74.795 184.546,75.386 184.743,76.102 185.145 C 76.817 185.547,77.718 185.830,78.104 185.773 C 78.489 185.716,78.711 185.820,78.598 186.003 C 78.485 186.186,79.069 186.553,79.896 186.820 C 80.723 187.086,81.617 187.476,81.882 187.687 C 82.148 187.897,82.534 187.964,82.741 187.837 C 82.947 187.709,83.227 187.892,83.361 188.244 C 83.499 188.601,83.864 188.784,84.192 188.658 C 84.514 188.535,85.031 188.688,85.341 188.998 C 85.651 189.308,86.015 189.452,86.150 189.317 C 86.285 189.182,86.711 189.356,87.098 189.705 C 87.484 190.053,88.294 190.461,88.897 190.612 C 89.501 190.762,89.886 191.061,89.754 191.275 C 89.621 191.490,89.847 191.630,90.256 191.586 C 91.682 191.436,92.445 191.603,92.194 192.010 C 92.055 192.235,92.089 192.379,92.270 192.329 C 92.867 192.164,95.562 193.338,95.355 193.673 C 95.244 193.853,95.515 194.000,95.958 194.000 C 96.990 194.000,98.800 194.820,98.800 195.288 C 98.800 195.485,98.965 195.545,99.168 195.420 C 99.370 195.295,99.807 195.464,100.139 195.796 C 100.471 196.128,101.015 196.400,101.348 196.400 C 101.681 196.400,102.074 196.596,102.222 196.835 C 102.369 197.074,102.830 197.181,103.245 197.072 C 103.660 196.964,104.107 197.049,104.238 197.262 C 104.527 197.728,106.454 198.564,106.963 198.443 C 107.163 198.396,107.482 198.592,107.671 198.879 C 107.939 199.285,108.155 199.224,108.649 198.600 L 109.283 197.800 109.049 198.600 C 108.877 199.189,109.077 199.522,109.807 199.862 C 110.597 200.230,110.800 200.216,110.800 199.796 C 110.800 199.505,110.575 199.176,110.300 199.065 C 109.914 198.909,109.918 198.856,110.321 198.832 C 110.607 198.814,111.024 199.322,111.246 199.960 C 111.640 201.089,112.464 201.581,114.298 201.779 C 114.986 201.854,115.096 201.757,114.770 201.364 C 114.325 200.828,178.879 135.813,179.370 136.303 C 179.496 136.430,179.600 136.325,179.600 136.070 C 179.600 135.814,206.130 109.077,238.555 76.653 C 280.499 34.710,297.414 17.547,297.181 17.169 C 297.000 16.877,296.930 16.514,297.024 16.362 C 297.307 15.903,295.162 16.165,294.770 16.637 M75.219 76.979 C 75.864 77.624,78.487 77.586,77.950 76.940 C 77.429 76.312,77.037 76.213,77.400 76.800 C 77.536 77.020,77.457 77.200,77.224 77.200 C 76.991 77.200,76.800 77.065,76.800 76.900 C 76.800 76.735,76.359 76.600,75.820 76.600 C 75.203 76.600,74.980 76.740,75.219 76.979 M72.800 77.564 C 72.800 77.790,72.485 77.877,72.100 77.757 C 71.489 77.567,71.494 77.600,72.139 78.011 C 72.626 78.323,73.012 78.348,73.273 78.087 C 73.535 77.825,73.522 77.599,73.235 77.422 C 72.996 77.274,72.800 77.338,72.800 77.564 M67.395 78.792 C 67.514 78.985,67.204 79.221,66.706 79.317 C 65.922 79.468,65.948 79.498,66.900 79.546 C 67.505 79.575,68.000 79.426,68.000 79.213 C 68.000 78.999,68.285 78.935,68.634 79.068 C 69.144 79.264,69.163 79.377,68.734 79.650 C 68.412 79.853,68.379 79.990,68.651 79.994 C 69.315 80.003,70.130 78.943,69.494 78.899 C 69.222 78.880,68.590 78.769,68.089 78.653 C 67.588 78.537,67.276 78.600,67.395 78.792 M65.038 79.495 C 64.876 79.657,64.457 79.792,64.106 79.795 C 63.756 79.798,63.385 80.050,63.283 80.356 C 63.152 80.745,63.262 80.808,63.648 80.566 C 63.952 80.376,64.515 80.272,64.900 80.335 C 65.317 80.404,65.600 80.198,65.600 79.825 C 65.600 79.131,65.476 79.058,65.038 79.495 M2.089 140.629 C 2.036 141.273,2.217 141.600,2.628 141.600 C 2.994 141.600,3.131 141.789,2.962 142.062 C 2.789 142.341,2.852 142.415,3.121 142.249 C 3.622 141.939,3.318 140.800,2.734 140.800 C 2.524 140.800,2.456 140.632,2.583 140.428 C 2.709 140.223,2.668 139.966,2.491 139.856 C 2.314 139.747,2.134 140.095,2.089 140.629 M106.267 197.000 C 106.267 197.705,104.976 197.809,104.562 197.138 C 104.405 196.884,104.448 196.782,104.657 196.912 C 104.867 197.041,105.300 196.982,105.619 196.780 C 105.939 196.578,106.215 196.409,106.233 196.406 C 106.252 196.403,106.267 196.670,106.267 197.000 M116.508 202.437 C 116.898 202.664,117.125 202.998,117.013 203.179 C 116.901 203.361,117.167 203.603,117.604 203.717 C 118.042 203.831,118.400 203.836,118.400 203.727 C 118.400 203.396,116.629 202.027,116.200 202.025 C 115.980 202.025,116.119 202.210,116.508 202.437 M125.725 206.900 C 126.657 207.754,127.200 207.796,127.200 207.013 C 127.200 206.653,126.966 206.515,126.595 206.657 C 126.262 206.785,125.759 206.734,125.476 206.545 C 125.193 206.355,125.306 206.515,125.725 206.900 " stroke="none" fill="#f45c6c" fill-rule="evenodd"></path><path id="path2" d="M386.800 89.200 C 386.400 89.458,386.367 89.590,386.700 89.594 C 386.975 89.597,387.200 89.791,387.200 90.024 C 387.200 90.257,386.992 90.319,386.738 90.162 C 386.459 89.989,386.385 90.052,386.551 90.321 C 386.993 91.036,387.933 90.430,387.709 89.574 C 387.598 89.148,387.483 88.803,387.453 88.806 C 387.424 88.809,387.130 88.987,386.800 89.200 M386.032 94.724 C 386.014 95.232,385.856 95.558,385.680 95.449 C 385.504 95.341,385.131 95.619,384.851 96.068 C 384.569 96.518,384.533 96.765,384.770 96.618 C 385.007 96.472,385.200 96.528,385.200 96.743 C 385.200 96.958,384.975 97.224,384.700 97.335 C 384.331 97.484,384.326 97.545,384.681 97.568 C 385.283 97.608,386.550 95.013,386.270 94.315 C 386.156 94.032,386.049 94.216,386.032 94.724 M383.467 101.067 C 383.054 101.479,383.152 102.800,383.596 102.800 C 383.813 102.800,383.954 102.350,383.908 101.800 C 383.815 100.678,383.831 100.703,383.467 101.067 M382.800 106.613 C 382.800 106.949,382.542 107.324,382.227 107.445 C 381.912 107.566,381.680 108.002,381.711 108.415 C 381.770 109.199,382.187 109.078,382.218 108.267 C 382.228 108.010,382.453 107.845,382.718 107.900 C 382.992 107.957,383.200 107.569,383.200 107.000 C 383.200 106.450,383.110 106.000,383.000 106.000 C 382.890 106.000,382.800 106.276,382.800 106.613 M379.415 115.739 C 379.010 116.036,378.793 116.466,378.935 116.694 C 379.076 116.923,378.930 117.085,378.611 117.055 C 378.291 117.025,338.467 156.555,290.113 204.900 C 213.429 281.569,200.693 294.192,201.759 292.467 C 201.872 292.283,201.703 292.133,201.382 292.133 C 201.062 292.133,200.800 292.166,200.800 292.207 C 200.800 292.817,201.783 294.800,202.086 294.800 C 202.310 294.800,202.399 295.160,202.284 295.600 C 202.169 296.040,202.226 296.400,202.410 296.400 C 202.595 296.400,202.860 296.760,203.000 297.200 C 203.140 297.640,203.500 298.000,203.800 298.000 C 204.375 298.000,205.039 299.495,204.640 299.893 C 204.512 300.022,204.630 300.403,204.903 300.740 C 205.315 301.249,205.298 301.295,204.800 301.008 C 204.317 300.730,204.327 300.813,204.848 301.431 C 205.204 301.854,205.400 302.470,205.283 302.800 C 205.102 303.309,205.168 303.319,205.719 302.864 C 206.285 302.397,206.347 302.435,206.207 303.164 C 206.034 304.063,206.604 304.327,206.931 303.500 C 207.040 303.225,207.053 303.867,206.959 304.927 C 206.849 306.167,206.933 306.765,207.194 306.603 C 207.418 306.465,207.600 306.718,207.600 307.167 C 207.600 307.614,207.959 308.570,208.399 309.290 C 208.838 310.011,209.198 310.900,209.199 311.267 C 209.199 311.633,209.390 311.997,209.622 312.074 C 209.854 312.151,210.103 312.571,210.175 313.007 C 210.247 313.443,210.489 313.761,210.712 313.714 C 210.935 313.666,211.031 313.960,210.925 314.367 C 210.818 314.774,211.054 315.713,211.449 316.453 C 211.844 317.194,212.177 317.890,212.189 318.000 C 212.202 318.110,212.384 318.470,212.595 318.800 C 212.805 319.130,213.006 319.580,213.040 319.800 C 213.074 320.020,213.422 320.920,213.813 321.800 C 214.204 322.680,214.486 323.564,214.441 323.763 C 214.395 323.963,214.512 324.233,214.700 324.363 C 215.143 324.670,216.593 327.708,216.484 328.100 C 216.438 328.265,216.591 328.400,216.824 328.400 C 217.057 328.400,217.135 328.581,216.998 328.803 C 216.861 329.025,217.023 329.480,217.358 329.815 C 217.692 330.149,217.853 330.717,217.715 331.077 C 217.547 331.515,217.619 331.635,217.932 331.442 C 218.208 331.271,218.400 331.393,218.400 331.739 C 218.400 332.061,218.786 333.106,219.257 334.062 C 219.728 335.018,220.253 336.160,220.423 336.600 C 221.415 339.161,221.828 340.000,222.098 340.000 C 222.264 340.000,222.400 340.345,222.400 340.767 C 222.400 341.188,222.563 341.593,222.762 341.667 C 222.961 341.740,223.186 342.250,223.262 342.800 C 223.338 343.350,223.490 343.890,223.600 344.000 C 224.078 344.478,224.800 346.039,224.800 346.595 C 224.800 346.928,224.980 347.200,225.200 347.200 C 225.420 347.200,225.600 347.560,225.600 348.000 C 225.600 348.440,225.742 348.800,225.915 348.800 C 226.088 348.800,226.256 349.143,226.287 349.561 C 226.319 349.980,227.177 352.034,228.194 354.125 C 229.212 356.217,230.072 358.292,230.105 358.736 C 230.139 359.181,230.346 359.512,230.565 359.472 C 230.784 359.433,230.966 359.760,230.968 360.200 C 230.971 360.640,231.079 361.090,231.207 361.200 C 231.641 361.570,232.805 364.325,233.054 365.568 C 233.189 366.246,233.532 366.800,233.815 366.800 C 234.098 366.800,234.281 367.115,234.221 367.500 C 234.162 367.885,234.277 368.306,234.477 368.436 C 234.677 368.566,234.869 369.053,234.904 369.519 C 234.939 369.985,235.053 370.280,235.158 370.175 C 235.384 369.949,237.200 374.300,237.200 375.068 C 237.200 375.361,237.380 375.600,237.600 375.600 C 237.820 375.600,238.003 376.095,238.006 376.700 C 238.011 377.557,238.098 377.668,238.400 377.200 C 238.809 376.567,238.993 377.040,238.830 378.300 C 238.794 378.575,238.953 378.800,239.182 378.800 C 239.412 378.800,239.600 379.160,239.600 379.600 C 239.600 380.040,239.741 380.400,239.912 380.400 C 240.084 380.400,240.446 380.895,240.717 381.500 C 241.472 383.188,242.184 384.306,243.311 385.571 C 243.877 386.206,244.219 386.862,244.070 387.027 C 243.922 387.193,244.009 387.209,244.264 387.063 C 244.521 386.916,245.180 387.336,245.743 388.006 C 246.302 388.670,246.986 389.165,247.262 389.107 C 247.538 389.048,247.796 389.180,247.836 389.400 C 248.153 391.163,250.181 392.830,251.224 392.185 C 251.392 392.081,251.479 392.312,251.417 392.698 C 251.244 393.768,251.601 394.096,252.312 393.519 C 252.793 393.130,252.878 393.125,252.653 393.500 C 252.484 393.781,252.549 394.000,252.800 394.000 C 253.046 394.000,253.124 394.199,252.974 394.443 C 252.784 394.749,253.073 394.804,253.912 394.619 C 254.690 394.448,255.231 394.527,255.424 394.838 C 255.628 395.170,255.555 395.220,255.194 394.996 C 254.804 394.755,254.735 394.853,254.932 395.367 C 255.079 395.751,255.203 396.186,255.206 396.333 C 255.209 396.480,255.387 396.330,255.600 396.000 C 255.817 395.664,255.990 395.604,255.994 395.863 C 255.998 396.139,256.348 396.234,256.867 396.098 C 257.512 395.930,257.678 396.020,257.514 396.448 C 257.378 396.800,257.664 397.200,258.247 397.475 C 258.772 397.723,259.100 397.762,258.977 397.563 C 258.854 397.363,258.943 397.200,259.176 397.200 C 259.409 397.200,259.600 397.030,259.600 396.823 C 259.600 396.616,259.240 396.515,258.800 396.600 C 257.336 396.882,257.837 396.361,288.763 365.437 C 307.603 346.598,319.447 334.467,319.321 334.138 C 319.126 333.631,319.598 333.431,320.670 333.563 C 320.928 333.595,321.271 333.409,321.432 333.149 C 321.605 332.868,321.552 332.782,321.302 332.937 C 321.037 333.101,320.880 332.678,320.880 331.799 C 320.880 330.867,321.067 330.400,321.440 330.400 C 321.748 330.400,322.000 330.220,322.000 330.000 C 322.000 329.780,321.820 329.600,321.600 329.600 C 321.380 329.600,321.200 329.330,321.200 329.000 C 321.200 328.670,321.380 328.400,321.600 328.400 C 321.820 328.400,322.003 328.625,322.006 328.900 C 322.010 329.240,322.131 329.212,322.383 328.813 C 322.618 328.442,322.598 328.039,322.328 327.713 C 322.021 327.344,322.037 327.200,322.384 327.200 C 322.650 327.200,322.786 326.975,322.688 326.700 C 322.590 326.425,322.722 325.750,322.981 325.200 C 323.240 324.650,323.418 323.975,323.376 323.700 C 323.334 323.425,323.278 323.009,323.250 322.776 C 323.223 322.543,322.975 322.467,322.700 322.606 C 322.425 322.745,322.533 322.588,322.940 322.256 C 323.371 321.905,323.554 321.449,323.378 321.165 C 323.197 320.871,323.243 320.779,323.494 320.935 C 323.949 321.216,325.412 319.278,325.032 318.899 C 324.904 318.771,324.800 318.847,324.800 319.067 C 324.800 319.287,324.547 319.467,324.238 319.467 C 323.794 319.467,323.772 319.314,324.134 318.733 C 324.386 318.330,324.729 318.000,324.896 318.000 C 325.063 318.000,325.200 317.730,325.200 317.400 C 325.200 317.070,325.009 316.800,324.776 316.800 C 324.543 316.800,324.481 317.008,324.638 317.262 C 324.815 317.548,324.748 317.615,324.462 317.438 C 323.784 317.020,323.886 316.824,325.000 316.400 C 326.037 316.006,326.288 315.425,325.605 315.003 C 325.378 314.863,325.311 315.023,325.447 315.379 C 325.578 315.721,325.525 316.000,325.328 316.000 C 325.131 316.000,324.943 315.640,324.910 315.200 C 324.877 314.760,325.044 314.400,325.281 314.400 C 325.745 314.400,326.766 313.219,326.787 312.657 C 326.794 312.469,326.530 312.418,326.200 312.545 C 325.420 312.844,325.441 312.616,326.270 311.787 C 326.838 311.219,326.861 310.985,326.423 310.258 C 325.996 309.549,325.997 309.487,326.433 309.900 C 327.220 310.646,327.522 310.510,327.458 309.438 C 327.426 308.909,327.277 308.552,327.128 308.645 C 326.978 308.737,326.724 308.585,326.564 308.307 C 326.403 308.028,326.414 307.929,326.588 308.086 C 327.227 308.662,328.277 307.630,328.313 306.391 C 328.332 305.705,328.561 304.888,328.821 304.574 C 329.081 304.261,329.197 303.632,329.078 303.178 C 328.942 302.656,329.085 302.266,329.465 302.120 C 329.954 301.932,329.967 301.825,329.534 301.550 C 329.240 301.364,329.187 301.209,329.415 301.206 C 329.782 301.201,329.946 300.642,330.091 298.900 C 330.114 298.625,330.298 298.400,330.500 298.400 C 330.702 298.400,330.785 298.175,330.685 297.900 C 330.586 297.625,330.742 296.813,331.033 296.096 C 331.324 295.379,331.675 294.038,331.813 293.116 C 331.950 292.194,332.319 290.944,332.631 290.339 C 332.944 289.735,333.200 288.871,333.200 288.420 C 333.200 287.969,333.342 287.600,333.515 287.600 C 333.688 287.600,333.873 287.027,333.927 286.327 C 333.980 285.626,334.177 284.861,334.365 284.627 C 334.552 284.392,334.649 283.705,334.580 283.100 C 334.511 282.495,334.612 282.000,334.804 282.000 C 334.997 282.000,335.085 281.640,335.000 281.200 C 334.915 280.760,335.016 280.400,335.223 280.400 C 335.430 280.400,335.600 280.130,335.600 279.800 C 335.600 279.470,335.743 279.200,335.918 279.200 C 336.093 279.200,336.282 278.530,336.337 277.712 C 336.392 276.894,336.564 276.129,336.718 276.012 C 336.873 275.895,337.037 275.440,337.083 275.000 C 337.128 274.560,337.275 273.660,337.409 273.000 C 337.544 272.340,337.652 271.481,337.651 271.091 C 337.650 270.702,337.818 270.487,338.024 270.615 C 338.231 270.743,338.400 270.307,338.400 269.647 C 338.400 268.987,338.580 268.336,338.800 268.200 C 339.020 268.064,339.200 267.233,339.200 266.353 C 339.200 265.388,339.359 264.851,339.600 265.000 C 339.820 265.136,340.000 264.877,340.000 264.424 C 340.000 263.167,340.033 263.043,340.534 262.423 C 340.895 261.976,340.888 261.914,340.500 262.147 C 340.225 262.312,340.000 262.257,340.000 262.024 C 340.000 261.791,340.180 261.600,340.400 261.600 C 340.620 261.600,340.800 261.150,340.800 260.600 C 340.800 260.050,340.953 259.600,341.139 259.600 C 341.444 259.600,341.658 258.219,341.651 256.291 C 341.650 255.902,341.818 255.687,342.024 255.815 C 342.231 255.943,342.400 255.734,342.400 255.352 C 342.400 254.685,342.963 252.685,343.625 251.000 C 344.010 250.021,344.395 248.294,344.674 246.297 C 344.790 245.471,345.045 244.695,345.242 244.574 C 345.439 244.452,345.600 243.823,345.600 243.176 C 345.600 242.529,345.753 242.000,345.939 242.000 C 346.126 242.000,346.294 241.435,346.314 240.745 C 346.334 240.055,346.541 239.299,346.775 239.065 C 347.009 238.831,347.200 238.147,347.200 237.544 C 347.200 236.941,347.396 236.326,347.635 236.178 C 347.874 236.031,347.981 235.570,347.872 235.155 C 347.764 234.740,347.841 234.298,348.044 234.173 C 348.247 234.047,348.317 233.790,348.200 233.600 C 348.083 233.410,348.170 233.142,348.393 233.004 C 348.617 232.866,348.800 232.324,348.800 231.800 C 348.800 231.276,348.980 230.736,349.200 230.600 C 349.420 230.464,349.600 229.733,349.600 228.976 C 349.600 228.219,349.742 227.600,349.915 227.600 C 350.088 227.600,350.273 227.040,350.325 226.355 C 350.377 225.671,350.595 224.783,350.810 224.382 C 351.024 223.981,351.200 223.281,351.200 222.826 C 351.200 222.372,351.345 222.000,351.522 222.000 C 351.699 222.000,351.888 221.242,351.943 220.316 C 351.998 219.390,352.292 218.085,352.598 217.416 C 353.103 216.309,353.877 213.677,354.219 211.900 C 354.294 211.513,354.467 211.015,354.605 210.792 C 354.866 210.370,355.279 208.567,355.313 207.700 C 355.324 207.425,355.438 207.200,355.567 207.200 C 355.695 207.200,355.826 206.795,355.858 206.300 C 355.914 205.429,357.041 200.821,357.497 199.600 C 357.620 199.270,357.773 198.741,357.836 198.424 C 357.900 198.106,358.083 197.386,358.243 196.824 C 358.404 196.261,358.572 195.665,358.617 195.500 C 358.663 195.335,358.723 194.829,358.750 194.376 C 358.778 193.923,358.944 193.642,359.120 193.751 C 359.296 193.859,359.484 193.285,359.537 192.474 C 359.591 191.663,359.807 190.940,360.018 190.867 C 360.228 190.793,360.400 190.018,360.400 189.143 C 360.400 188.185,360.559 187.651,360.800 187.800 C 361.038 187.947,361.200 187.471,361.200 186.624 C 361.200 185.755,361.395 185.198,361.700 185.194 C 362.033 185.190,362.000 185.058,361.600 184.800 C 361.200 184.542,361.167 184.410,361.500 184.406 C 361.788 184.403,362.000 183.890,362.000 183.200 C 362.000 182.540,362.180 182.000,362.400 182.000 C 362.620 182.000,362.800 181.381,362.800 180.624 C 362.800 179.867,362.959 179.149,363.154 179.029 C 363.349 178.908,363.607 178.313,363.729 177.705 C 363.851 177.097,364.149 175.790,364.391 174.800 C 364.633 173.810,364.903 172.554,364.991 172.008 C 365.078 171.463,365.341 170.953,365.575 170.875 C 365.809 170.797,366.000 170.018,366.000 169.143 C 366.000 168.138,366.154 167.648,366.418 167.811 C 366.683 167.975,366.782 167.658,366.687 166.949 C 366.604 166.333,366.775 165.372,367.066 164.814 C 367.357 164.256,367.596 163.395,367.598 162.900 C 367.599 162.405,367.802 162.000,368.049 162.000 C 368.342 162.000,368.307 161.764,367.949 161.323 C 367.647 160.951,367.595 160.763,367.833 160.906 C 368.113 161.073,368.267 160.646,368.267 159.705 C 368.267 158.902,368.476 158.175,368.733 158.089 C 369.021 157.993,369.100 157.542,368.941 156.907 C 368.743 156.120,368.806 155.957,369.210 156.206 C 369.586 156.439,369.666 156.349,369.490 155.891 C 369.355 155.540,369.409 155.195,369.610 155.126 C 369.810 155.057,370.019 154.415,370.072 153.700 C 370.126 152.985,370.312 152.400,370.485 152.400 C 370.658 152.400,370.800 151.950,370.800 151.400 C 370.800 150.850,370.980 150.400,371.199 150.400 C 371.419 150.400,371.542 149.690,371.474 148.822 C 371.399 147.874,371.504 147.341,371.737 147.485 C 371.966 147.626,372.033 147.370,371.900 146.862 C 371.776 146.387,371.838 146.100,372.037 146.223 C 372.237 146.346,372.400 146.017,372.400 145.490 C 372.400 144.964,372.524 144.410,372.675 144.259 C 372.826 144.107,372.988 143.672,373.036 143.292 C 373.083 142.911,373.312 142.000,373.543 141.266 C 373.887 140.175,373.868 140.012,373.437 140.370 C 373.019 140.717,372.949 140.599,373.101 139.803 C 373.307 138.730,373.813 138.481,374.122 139.300 C 374.227 139.575,374.304 139.207,374.294 138.481 C 374.285 137.756,374.485 136.955,374.739 136.701 C 375.419 136.021,375.299 135.593,374.500 135.850 C 374.073 135.988,373.972 135.944,374.241 135.738 C 375.250 134.965,376.152 132.335,375.671 131.566 C 375.289 130.953,375.347 130.749,376.004 130.398 C 376.889 129.924,377.076 128.578,376.300 128.265 C 376.025 128.154,376.205 128.049,376.700 128.032 C 377.452 128.005,377.600 127.775,377.600 126.633 C 377.600 125.882,377.735 125.191,377.900 125.099 C 378.065 125.007,377.987 124.981,377.727 125.042 C 377.441 125.110,377.268 124.694,377.288 123.991 C 377.306 123.351,377.486 122.930,377.688 123.054 C 377.889 123.179,377.954 123.542,377.832 123.861 C 377.703 124.198,377.782 124.335,378.021 124.187 C 378.247 124.047,378.330 123.609,378.204 123.214 C 378.065 122.775,378.214 122.403,378.588 122.260 C 378.925 122.131,379.200 121.739,379.200 121.389 C 379.200 121.039,379.032 120.856,378.828 120.983 C 378.623 121.109,378.342 121.030,378.204 120.807 C 378.066 120.583,378.233 120.400,378.576 120.400 C 379.319 120.400,379.415 119.357,378.700 119.057 C 378.338 118.904,378.385 118.729,378.873 118.418 C 379.423 118.069,380.800 115.867,380.800 115.339 C 380.800 115.031,380.111 115.231,379.415 115.739 M379.378 118.435 C 379.231 118.674,379.310 119.070,379.555 119.315 C 379.882 119.642,380.000 119.526,380.000 118.880 C 380.000 117.914,379.792 117.765,379.378 118.435 M196.243 280.633 C 195.868 281.608,195.945 281.893,196.657 282.166 C 197.182 282.368,197.221 282.307,196.850 281.860 C 196.595 281.553,196.499 281.009,196.636 280.651 C 196.773 280.293,196.796 280.000,196.686 280.000 C 196.576 280.000,196.376 280.285,196.243 280.633 M198.660 286.702 C 198.386 287.146,198.839 289.200,199.211 289.200 C 199.586 289.200,199.509 288.410,199.065 287.700 C 198.893 287.425,198.864 287.020,199.000 286.800 C 199.136 286.580,199.157 286.400,199.047 286.400 C 198.937 286.400,198.763 286.536,198.660 286.702 M199.986 289.417 C 199.584 289.901,199.578 290.138,199.961 290.517 C 200.342 290.896,200.384 290.834,200.156 290.234 C 199.975 289.759,200.016 289.563,200.265 289.717 C 200.486 289.853,200.667 289.703,200.667 289.382 C 200.667 288.654,200.617 288.657,199.986 289.417 M320.107 334.101 C 320.252 334.480,320.096 334.831,319.717 334.976 C 319.039 335.237,319.282 335.706,320.162 335.836 C 320.802 335.929,320.906 334.112,320.282 333.727 C 320.028 333.570,319.959 333.717,320.107 334.101 M318.884 338.688 C 319.033 339.399,319.725 339.391,319.830 338.678 C 319.874 338.378,319.653 338.133,319.338 338.133 C 319.024 338.133,318.819 338.383,318.884 338.688 M317.424 344.613 C 316.996 344.936,316.872 345.200,317.147 345.200 C 317.422 345.200,317.534 345.383,317.396 345.607 C 317.258 345.830,317.007 345.928,316.839 345.824 C 316.671 345.720,316.533 345.890,316.533 346.200 C 316.533 346.511,316.783 346.861,317.087 346.978 C 317.404 347.100,317.532 347.014,317.386 346.778 C 317.246 346.551,317.349 346.103,317.615 345.782 C 317.880 345.462,317.964 345.200,317.800 345.200 C 317.636 345.200,317.726 344.930,318.000 344.600 C 318.623 343.849,318.427 343.854,317.424 344.613 M316.109 347.442 C 316.265 347.598,316.193 347.968,315.948 348.263 C 315.357 348.975,315.902 348.955,316.618 348.239 C 317.100 347.757,317.083 347.641,316.502 347.418 C 316.129 347.275,315.952 347.286,316.109 347.442 M315.000 352.000 C 314.502 352.214,314.419 352.354,314.780 352.372 C 315.231 352.394,315.253 352.507,314.880 352.880 C 314.616 353.144,314.400 353.715,314.400 354.150 C 314.400 354.929,314.410 354.930,315.142 354.170 C 315.550 353.746,315.732 353.340,315.545 353.268 C 315.359 353.195,315.391 352.790,315.617 352.368 C 315.843 351.945,315.977 351.613,315.914 351.628 C 315.851 351.644,315.440 351.811,315.000 352.000 M314.028 355.947 C 313.808 356.358,313.737 356.804,313.871 356.938 C 314.005 357.071,313.905 357.432,313.650 357.740 C 313.395 358.047,313.299 358.591,313.436 358.949 C 313.709 359.661,314.400 359.841,314.400 359.200 C 314.400 358.980,314.198 358.800,313.951 358.800 C 313.626 358.800,313.629 358.647,313.965 358.243 C 314.404 357.713,314.916 355.200,314.585 355.200 C 314.499 355.200,314.248 355.536,314.028 355.947 M312.654 362.198 C 312.781 362.526,313.045 362.696,313.242 362.574 C 313.807 362.225,313.660 361.600,313.013 361.600 C 312.656 361.600,312.515 361.835,312.654 362.198 M306.632 380.476 C 305.983 381.402,306.056 381.860,306.780 381.412 C 307.018 381.265,307.116 380.988,306.998 380.797 C 306.880 380.606,307.102 380.264,307.492 380.037 C 307.881 379.810,307.985 379.619,307.723 379.612 C 307.460 379.605,306.969 379.994,306.632 380.476 M260.590 397.893 C 261.025 398.306,261.655 398.676,261.990 398.716 C 263.183 398.857,263.807 399.027,264.327 399.351 C 264.616 399.532,264.947 399.587,265.061 399.472 C 265.175 399.358,264.893 399.064,264.434 398.818 C 263.975 398.573,263.600 398.462,263.600 398.572 C 263.600 398.682,262.745 398.405,261.700 397.957 C 259.927 397.197,259.853 397.193,260.590 397.893 M266.800 399.514 C 266.800 399.701,267.337 399.855,267.994 399.855 C 269.372 399.855,269.237 399.499,267.785 399.305 C 267.243 399.232,266.800 399.326,266.800 399.514 " stroke="none" fill="#f44c6c" fill-rule="evenodd"></path><path id="path3" d="M130.000 61.800 C 129.722 62.135,129.679 62.400,129.902 62.400 C 130.122 62.400,130.526 62.130,130.800 61.800 C 131.078 61.465,131.121 61.200,130.898 61.200 C 130.678 61.200,130.274 61.470,130.000 61.800 M114.584 65.627 C 114.160 66.313,114.539 66.380,115.377 65.767 C 116.026 65.293,116.046 65.200,115.500 65.200 C 115.141 65.200,114.729 65.392,114.584 65.627 M94.714 71.715 C 94.852 72.241,95.001 72.321,95.211 71.983 C 95.376 71.716,95.709 71.620,95.951 71.770 C 96.223 71.938,96.304 71.815,96.163 71.448 C 95.817 70.545,94.473 70.792,94.714 71.715 M88.655 73.000 C 88.492 73.427,88.682 73.591,89.313 73.568 C 89.801 73.551,89.974 73.446,89.698 73.334 C 89.421 73.223,89.297 72.967,89.421 72.766 C 89.545 72.565,89.476 72.400,89.266 72.400 C 89.057 72.400,88.782 72.670,88.655 73.000 M79.200 75.600 C 78.760 76.040,78.400 76.239,78.400 76.042 C 78.400 75.840,77.792 75.821,77.000 76.000 C 76.230 76.174,75.597 76.200,75.594 76.058 C 75.591 75.916,75.445 76.024,75.271 76.299 C 75.097 76.573,74.425 76.872,73.777 76.963 C 71.464 77.288,68.758 77.908,68.493 78.174 C 68.114 78.552,69.271 79.202,69.781 78.897 C 70.011 78.759,69.953 78.951,69.651 79.323 C 69.349 79.695,68.899 79.997,68.651 79.994 C 68.344 79.990,68.355 79.890,68.684 79.680 C 69.038 79.455,68.974 79.251,68.448 78.923 C 67.960 78.618,67.547 78.603,67.164 78.874 C 66.717 79.192,66.745 79.229,67.300 79.050 C 67.685 78.926,68.000 79.020,68.000 79.258 C 68.000 79.511,67.503 79.618,66.800 79.515 C 65.958 79.391,65.600 79.504,65.600 79.894 C 65.600 80.201,65.286 80.399,64.900 80.335 C 64.515 80.272,63.975 80.361,63.700 80.534 C 63.380 80.734,63.200 80.623,63.200 80.224 C 63.200 79.881,63.410 79.600,63.667 79.600 C 63.923 79.600,64.024 79.490,63.890 79.356 C 63.756 79.222,63.124 79.485,62.486 79.939 C 61.641 80.540,61.205 80.645,60.885 80.325 C 60.565 80.005,60.506 80.118,60.669 80.742 C 60.906 81.647,60.211 81.956,59.864 81.100 C 59.711 80.724,59.556 80.748,59.237 81.200 C 58.926 81.640,58.811 81.660,58.806 81.277 C 58.801 80.874,58.601 80.894,57.926 81.366 C 57.421 81.720,56.662 81.880,56.126 81.746 C 55.463 81.579,55.200 81.685,55.200 82.119 C 55.200 82.529,54.940 82.657,54.398 82.515 C 53.957 82.400,53.292 82.552,52.921 82.853 C 52.550 83.154,52.371 83.192,52.524 82.937 C 52.709 82.628,52.538 82.543,52.005 82.683 C 51.567 82.797,51.306 83.048,51.425 83.241 C 51.544 83.433,51.333 83.472,50.955 83.327 C 50.436 83.128,50.352 83.203,50.611 83.632 C 50.897 84.106,50.848 84.115,50.316 83.683 C 49.895 83.343,49.629 83.312,49.536 83.592 C 49.458 83.826,48.828 84.058,48.136 84.108 C 47.444 84.159,46.979 84.363,47.102 84.563 C 47.224 84.763,46.937 84.825,46.463 84.701 C 45.989 84.577,45.498 84.641,45.373 84.844 C 45.247 85.047,44.969 85.105,44.755 84.972 C 44.540 84.840,44.068 84.972,43.706 85.266 C 43.144 85.721,43.092 85.711,43.353 85.200 C 43.590 84.736,43.540 84.743,43.130 85.235 C 42.838 85.584,42.375 85.794,42.100 85.702 C 41.825 85.609,41.600 85.750,41.600 86.016 C 41.600 86.384,41.468 86.388,41.039 86.032 C 40.670 85.726,40.430 85.708,40.339 85.980 C 40.263 86.207,39.576 86.465,38.814 86.554 C 38.052 86.643,37.369 86.893,37.296 87.111 C 37.224 87.329,36.521 87.421,35.734 87.315 C 34.759 87.183,34.391 87.261,34.576 87.561 C 34.828 87.968,34.291 88.187,33.437 88.026 C 33.237 87.989,32.949 88.158,32.798 88.403 C 32.647 88.648,31.736 88.859,30.774 88.873 C 29.811 88.886,28.644 89.146,28.180 89.450 C 27.716 89.754,27.216 89.882,27.068 89.735 C 26.921 89.587,26.797 89.722,26.794 90.033 C 26.789 90.500,26.719 90.494,26.400 90.000 C 26.142 89.600,26.010 89.567,26.006 89.900 C 26.003 90.175,25.792 90.400,25.539 90.400 C 25.285 90.400,24.110 90.858,22.928 91.417 C 21.745 91.976,20.575 92.308,20.327 92.155 C 20.052 91.985,19.987 92.056,20.162 92.338 C 20.319 92.592,20.257 92.800,20.024 92.800 C 19.237 92.800,19.002 92.919,18.513 93.560 C 18.116 94.081,18.023 94.093,18.013 93.624 C 18.004 93.208,17.836 93.264,17.413 93.824 C 17.090 94.251,16.820 94.439,16.813 94.242 C 16.806 94.045,15.990 94.717,15.000 95.736 C 13.252 97.534,12.488 97.890,13.900 96.249 C 14.426 95.638,14.289 95.680,13.352 96.418 C 12.666 96.958,12.181 97.535,12.276 97.700 C 12.370 97.865,12.233 98.000,11.971 98.000 C 11.530 98.000,10.000 99.483,10.000 99.910 C 10.000 100.013,10.315 99.854,10.700 99.556 C 11.291 99.098,11.284 99.150,10.652 99.891 C 10.241 100.373,9.791 100.730,9.652 100.684 C 9.514 100.638,9.371 100.764,9.336 100.964 C 9.301 101.164,8.982 101.490,8.627 101.689 C 8.273 101.887,8.088 102.218,8.215 102.425 C 8.343 102.631,8.200 102.800,7.897 102.800 C 7.595 102.800,6.963 103.475,6.493 104.300 C 6.023 105.125,5.180 106.287,4.619 106.883 C 4.059 107.478,3.600 108.344,3.600 108.806 C 3.600 109.279,3.420 109.536,3.190 109.394 C 2.965 109.255,2.806 109.289,2.837 109.470 C 3.009 110.457,2.747 111.614,2.400 111.400 C 2.173 111.260,2.000 111.596,2.000 112.176 C 2.000 112.739,1.801 113.200,1.558 113.200 C 1.284 113.200,1.174 113.807,1.269 114.800 C 1.371 115.872,1.261 116.400,0.935 116.400 C 0.361 116.400,0.407 115.882,0.144 125.300 C -0.002 130.536,0.066 132.800,0.368 132.800 C 0.605 132.800,0.800 132.991,0.800 133.224 C 0.800 133.457,0.651 133.555,0.468 133.442 C 0.286 133.329,0.181 133.634,0.235 134.119 C 0.289 134.603,0.348 135.219,0.367 135.487 C 0.385 135.756,0.672 135.871,1.005 135.743 C 1.436 135.577,1.539 135.694,1.363 136.153 C 1.227 136.506,0.985 136.714,0.825 136.615 C 0.664 136.516,0.533 136.689,0.533 137.000 C 0.533 137.311,0.683 137.472,0.867 137.359 C 1.050 137.245,1.200 137.813,1.200 138.619 C 1.200 139.744,1.337 140.033,1.787 139.860 C 2.110 139.736,2.498 139.835,2.649 140.079 C 2.829 140.370,2.730 140.413,2.362 140.203 C 2.053 140.027,2.214 140.284,2.720 140.776 C 3.438 141.472,3.540 141.791,3.182 142.222 C 2.744 142.750,3.994 145.073,4.463 144.604 C 4.556 144.510,4.662 144.829,4.698 145.311 C 4.735 145.794,4.954 146.251,5.185 146.328 C 5.416 146.405,5.514 146.616,5.402 146.797 C 5.290 146.978,5.604 147.030,6.099 146.913 C 6.988 146.703,6.990 146.708,6.200 147.343 C 5.406 147.982,5.406 147.989,6.306 148.242 C 6.805 148.382,7.165 148.733,7.106 149.022 C 7.048 149.311,7.180 149.559,7.400 149.574 C 7.620 149.588,7.800 149.417,7.800 149.193 C 7.800 148.969,24.102 132.544,44.027 112.693 C 70.967 85.852,80.250 76.369,80.239 75.700 C 80.222 74.604,80.199 74.601,79.200 75.600 M77.257 77.200 C 77.472 77.200,77.536 77.020,77.400 76.800 C 77.037 76.213,77.429 76.312,77.950 76.940 C 78.314 77.378,78.118 77.460,76.899 77.377 C 74.936 77.243,74.854 77.202,75.800 76.826 C 76.240 76.651,76.660 76.663,76.733 76.854 C 76.807 77.044,77.042 77.200,77.257 77.200 M73.273 78.087 C 73.012 78.348,72.626 78.323,72.139 78.011 C 71.494 77.600,71.489 77.567,72.100 77.757 C 72.485 77.877,72.800 77.790,72.800 77.564 C 72.800 77.338,72.996 77.274,73.235 77.422 C 73.522 77.599,73.535 77.825,73.273 78.087 M10.224 153.161 C 10.089 153.380,10.343 153.755,10.789 153.994 C 11.711 154.488,11.889 153.938,11.036 153.230 C 10.672 152.927,10.384 152.903,10.224 153.161 M12.000 155.186 C 12.000 155.414,12.167 155.600,12.371 155.600 C 12.576 155.600,13.003 155.860,13.321 156.179 C 13.826 156.683,13.899 156.620,13.892 155.679 C 13.888 155.085,13.806 154.824,13.710 155.097 C 13.583 155.459,13.327 155.482,12.768 155.183 C 12.241 154.901,12.000 154.902,12.000 155.186 M171.293 229.200 C 171.568 229.640,171.931 230.000,172.100 230.000 C 172.269 230.000,172.182 229.640,171.907 229.200 C 171.632 228.760,171.269 228.400,171.100 228.400 C 170.931 228.400,171.018 228.760,171.293 229.200 " stroke="none" fill="#f4646c" fill-rule="evenodd"></path><path id="path4" d="M340.549 261.522 C 340.047 261.848,339.972 263.265,340.473 262.955 C 340.660 262.839,340.719 262.593,340.604 262.407 C 340.489 262.221,340.621 261.988,340.898 261.889 C 341.174 261.790,341.305 261.605,341.188 261.477 C 341.072 261.348,340.784 261.369,340.549 261.522 M334.477 282.430 C 334.555 282.666,334.791 282.860,335.000 282.860 C 335.209 282.860,335.445 282.666,335.523 282.430 C 335.602 282.194,335.367 282.000,335.000 282.000 C 334.633 282.000,334.398 282.194,334.477 282.430 M332.400 290.503 C 332.400 290.559,332.233 291.189,332.028 291.903 C 331.798 292.703,331.798 293.200,332.028 293.200 C 332.233 293.200,332.400 292.840,332.400 292.400 C 332.400 291.960,332.580 291.600,332.800 291.600 C 333.020 291.600,333.200 291.330,333.200 291.000 C 333.200 290.670,333.020 290.400,332.800 290.400 C 332.580 290.400,332.400 290.446,332.400 290.503 M330.868 296.376 C 330.545 297.302,330.569 297.510,330.979 297.353 C 331.266 297.243,331.500 296.713,331.500 296.176 C 331.500 294.903,331.367 294.945,330.868 296.376 M330.184 299.100 C 330.246 299.485,330.104 300.070,329.868 300.400 C 329.515 300.894,329.537 300.912,329.994 300.505 C 330.643 299.928,330.961 298.400,330.433 298.400 C 330.234 298.400,330.122 298.715,330.184 299.100 M328.032 307.877 C 328.014 308.139,327.646 308.286,327.212 308.202 C 326.539 308.073,326.491 308.157,326.883 308.784 C 327.409 309.627,328.643 308.834,328.264 307.896 C 328.117 307.534,328.055 307.528,328.032 307.877 M326.000 314.000 C 326.000 314.220,325.741 314.400,325.425 314.400 C 325.096 314.400,324.876 314.743,324.910 315.200 C 324.993 316.300,325.283 316.201,326.081 314.797 C 326.456 314.139,326.591 313.600,326.381 313.600 C 326.172 313.600,326.000 313.780,326.000 314.000 M324.217 316.772 C 324.091 316.977,324.198 317.275,324.455 317.434 C 324.748 317.615,324.816 317.550,324.638 317.262 C 324.467 316.985,324.613 316.800,325.000 316.800 C 325.387 316.800,325.533 316.985,325.362 317.262 C 325.185 317.548,325.252 317.615,325.538 317.438 C 325.792 317.281,326.000 316.983,326.000 316.776 C 326.000 316.289,324.518 316.286,324.217 316.772 M324.092 318.801 C 323.690 319.444,323.691 319.583,324.096 319.501 C 324.635 319.393,325.184 318.792,325.194 318.300 C 325.206 317.725,324.589 318.006,324.092 318.801 M324.196 320.807 C 324.058 321.030,323.749 321.092,323.511 320.945 C 323.243 320.779,323.192 320.864,323.378 321.165 C 323.554 321.449,323.371 321.905,322.940 322.256 C 322.533 322.588,322.410 322.755,322.666 322.627 C 322.922 322.499,323.226 322.621,323.341 322.898 C 323.618 323.563,324.800 322.126,324.800 321.124 C 324.800 320.315,324.573 320.196,324.196 320.807 M322.170 327.551 C 322.324 327.801,322.169 328.114,321.825 328.246 C 321.034 328.549,321.014 329.443,321.793 329.742 C 322.219 329.906,322.359 329.721,322.293 329.085 C 322.234 328.522,322.396 328.241,322.738 328.313 C 323.420 328.455,323.131 327.510,322.419 327.273 C 322.101 327.167,322.001 327.278,322.170 327.551 M320.928 332.001 C 321.005 332.969,320.886 333.583,320.627 333.553 C 319.612 333.439,319.146 333.634,319.323 334.100 C 319.429 334.378,305.838 348.295,288.685 365.473 C 263.533 390.661,257.943 396.449,258.325 396.909 C 258.582 397.220,258.660 397.621,258.497 397.801 C 258.333 397.981,258.410 398.008,258.668 397.860 C 258.925 397.713,259.407 397.864,259.739 398.196 C 260.439 398.896,261.200 398.990,261.200 398.376 C 261.200 398.143,261.039 398.052,260.842 398.174 C 260.645 398.296,260.386 398.140,260.266 397.828 C 260.083 397.351,260.279 397.357,261.502 397.869 C 262.302 398.203,263.306 398.543,263.733 398.626 C 264.160 398.708,264.814 399.051,265.186 399.388 C 266.007 400.130,266.671 400.173,266.914 399.500 C 267.058 399.105,267.283 399.111,267.990 399.530 C 268.731 399.969,268.833 399.969,268.583 399.530 C 268.341 399.104,268.388 399.098,268.821 399.500 C 269.118 399.775,269.774 400.000,270.280 400.000 C 270.786 400.000,271.203 399.775,271.206 399.500 C 271.211 399.131,271.302 399.141,271.555 399.540 C 271.827 399.970,273.033 400.035,277.449 399.855 C 280.502 399.730,283.405 399.620,283.900 399.610 C 284.395 399.599,284.800 399.413,284.800 399.196 C 284.800 398.978,285.160 398.800,285.600 398.800 C 286.040 398.800,286.403 398.575,286.406 398.300 C 286.410 397.967,286.542 398.000,286.800 398.400 C 287.129 398.909,287.189 398.890,287.194 398.276 C 287.197 397.848,287.382 397.665,287.645 397.828 C 287.889 397.979,288.247 397.854,288.439 397.551 C 288.653 397.212,288.790 397.178,288.794 397.462 C 288.799 397.812,289.043 397.812,289.800 397.462 C 290.350 397.208,290.721 396.789,290.625 396.531 C 290.511 396.227,290.788 396.123,291.414 396.237 C 292.154 396.371,292.325 396.269,292.145 395.801 C 291.970 395.346,292.091 395.260,292.621 395.463 C 293.052 395.629,293.234 395.579,293.084 395.336 C 292.948 395.115,293.458 394.691,294.218 394.393 C 294.978 394.095,295.600 393.716,295.600 393.552 C 295.600 393.388,295.974 393.135,296.432 392.990 C 296.890 392.845,297.819 392.157,298.498 391.463 C 299.177 390.768,299.584 390.470,299.404 390.800 C 299.224 391.130,299.442 391.040,299.887 390.600 C 300.333 390.160,300.620 389.665,300.525 389.500 C 300.430 389.335,300.653 389.200,301.019 389.200 C 301.445 389.200,301.603 388.985,301.457 388.605 C 301.329 388.270,301.432 388.051,301.692 388.105 C 301.947 388.157,302.279 387.660,302.430 387.000 C 302.582 386.340,302.727 386.115,302.753 386.500 C 302.844 387.853,305.199 385.713,305.200 384.276 C 305.200 383.878,305.375 383.661,305.588 383.793 C 305.802 383.925,306.089 383.583,306.228 383.033 C 306.366 382.483,306.731 381.823,307.039 381.567 C 307.348 381.311,307.600 380.824,307.600 380.484 C 307.600 380.145,307.465 380.002,307.300 380.167 C 307.135 380.332,307.000 380.662,307.000 380.900 C 307.000 381.138,306.758 381.414,306.461 381.513 C 305.703 381.766,306.640 380.036,307.424 379.735 C 307.738 379.615,307.907 379.374,307.800 379.200 C 307.693 379.026,307.894 378.773,308.248 378.637 C 308.685 378.469,308.830 378.067,308.699 377.385 C 308.594 376.833,308.691 376.267,308.915 376.129 C 309.166 375.974,309.199 376.078,309.000 376.400 C 308.793 376.736,308.833 376.827,309.113 376.654 C 309.353 376.506,309.551 376.073,309.552 375.692 C 309.557 374.681,310.610 371.143,310.838 371.371 C 310.945 371.478,311.076 370.991,311.130 370.289 C 311.183 369.587,311.401 368.839,311.613 368.627 C 311.826 368.414,312.000 367.736,312.000 367.120 C 312.000 366.504,312.135 366.000,312.300 366.000 C 312.465 366.000,312.600 365.010,312.600 363.800 C 312.600 362.428,312.771 361.600,313.053 361.600 C 313.660 361.600,313.968 359.843,313.506 359.017 C 313.266 358.589,313.300 358.162,313.603 357.797 C 313.859 357.488,313.969 357.074,313.847 356.876 C 313.725 356.679,313.903 356.176,314.242 355.759 C 314.582 355.342,314.745 355.225,314.606 355.500 C 314.467 355.775,314.543 356.000,314.776 356.000 C 315.009 356.000,315.200 355.629,315.200 355.176 C 315.200 354.723,315.020 354.464,314.800 354.600 C 314.232 354.951,314.302 353.458,314.880 352.880 C 315.253 352.507,315.231 352.399,314.780 352.394 C 314.461 352.391,314.632 352.166,315.161 351.894 C 316.566 351.172,317.156 350.077,316.400 349.595 C 316.001 349.340,315.968 349.210,316.300 349.206 C 316.575 349.203,316.786 348.885,316.768 348.500 C 316.750 348.082,316.656 348.001,316.535 348.300 C 316.424 348.575,316.146 348.800,315.918 348.800 C 315.645 348.800,315.655 348.615,315.948 348.263 C 316.193 347.968,316.265 347.598,316.109 347.442 C 315.952 347.286,316.134 347.276,316.512 347.422 C 316.890 347.567,317.223 347.531,317.251 347.343 C 317.482 345.790,317.429 345.200,317.056 345.200 C 316.817 345.200,317.032 344.912,317.534 344.561 C 318.406 343.950,318.414 343.896,317.723 343.328 C 317.130 342.842,317.117 342.771,317.651 342.936 C 318.394 343.166,319.200 342.511,319.200 341.677 C 319.200 341.344,318.958 341.207,318.606 341.342 C 318.109 341.533,318.092 341.442,318.502 340.785 C 318.772 340.353,319.264 339.995,319.596 339.988 C 320.075 339.978,320.055 339.891,319.500 339.568 C 319.115 339.344,318.800 338.877,318.800 338.531 C 318.800 338.064,318.932 338.012,319.315 338.329 C 319.708 338.656,319.848 338.524,319.911 337.766 C 319.986 336.863,319.914 336.816,319.097 337.237 C 318.404 337.593,318.302 337.590,318.648 337.221 C 318.894 336.959,319.394 336.701,319.759 336.647 C 320.464 336.544,320.676 335.800,320.000 335.800 C 319.780 335.800,319.645 335.620,319.700 335.400 C 319.755 335.180,320.044 335.028,320.343 335.063 C 320.739 335.108,320.766 335.006,320.443 334.683 C 319.796 334.036,319.901 333.420,320.564 333.970 C 321.156 334.462,321.843 333.916,321.444 333.271 C 321.332 333.091,321.484 332.473,321.782 331.900 C 322.348 330.808,322.227 330.400,321.334 330.400 C 320.958 330.400,320.839 330.871,320.928 332.001 M225.200 348.308 C 225.200 348.494,225.440 348.975,225.733 349.376 C 226.121 349.906,226.267 349.950,226.267 349.535 C 226.267 349.222,226.027 348.741,225.733 348.467 C 225.440 348.193,225.200 348.121,225.200 348.308 M315.317 352.762 C 314.931 353.380,314.951 353.627,315.418 354.015 C 315.828 354.355,316.000 354.365,316.000 354.049 C 316.000 353.802,315.775 353.597,315.500 353.594 C 315.136 353.589,315.150 353.493,315.549 353.240 C 315.851 353.049,316.030 352.690,315.947 352.442 C 315.862 352.186,315.591 352.323,315.317 352.762 M228.319 355.597 C 228.693 356.256,229.145 356.796,229.323 356.797 C 229.500 356.799,229.326 356.260,228.936 355.600 C 228.546 354.940,228.095 354.400,227.932 354.400 C 227.770 354.400,227.944 354.939,228.319 355.597 M243.632 386.709 C 243.614 386.988,244.050 387.422,244.600 387.673 C 245.150 387.923,245.600 388.270,245.600 388.442 C 245.600 388.614,246.219 389.432,246.976 390.258 C 247.989 391.364,248.319 391.554,248.223 390.980 C 248.152 390.551,247.862 390.255,247.579 390.323 C 247.161 390.422,247.162 390.328,247.581 389.823 C 248.057 389.250,247.886 389.023,247.080 389.159 C 246.904 389.189,246.302 388.670,245.743 388.006 C 245.184 387.341,244.579 386.889,244.398 387.001 C 244.217 387.113,243.977 386.979,243.866 386.702 C 243.705 386.303,243.657 386.305,243.632 386.709 M249.701 392.504 C 249.903 393.109,251.467 393.271,251.467 392.687 C 251.467 392.419,251.038 392.173,250.514 392.141 C 249.990 392.109,249.624 392.272,249.701 392.504 M252.138 393.817 C 251.820 394.645,252.297 395.063,252.887 394.473 C 253.251 394.109,253.244 394.000,252.856 394.000 C 252.579 394.000,252.464 393.820,252.600 393.600 C 252.736 393.380,252.741 393.200,252.611 393.200 C 252.481 393.200,252.268 393.478,252.138 393.817 M253.817 394.772 C 253.691 394.977,253.804 395.279,254.070 395.443 C 254.335 395.607,254.624 395.529,254.711 395.268 C 254.797 395.008,255.061 394.914,255.296 395.059 C 255.549 395.216,255.607 395.135,255.438 394.862 C 255.095 394.307,254.137 394.254,253.817 394.772 M256.400 396.400 C 256.400 396.620,256.670 396.800,257.000 396.800 C 257.330 396.800,257.600 396.620,257.600 396.400 C 257.600 396.180,257.330 396.000,257.000 396.000 C 256.670 396.000,256.400 396.180,256.400 396.400 M261.942 398.892 C 262.444 399.532,264.557 399.777,264.170 399.151 C 264.075 398.997,263.683 398.922,263.298 398.984 C 262.914 399.046,262.330 398.895,262.000 398.649 C 261.480 398.260,261.472 398.293,261.942 398.892 " stroke="none" fill="#f4446c" fill-rule="evenodd"></path></g></svg>